<?xml version="1.0" encoding="utf-8" standalone="no"?>
<!DOCTYPE svg PUBLIC "-//W3C//DTD SVG 1.1//EN"
  "http://www.w3.org/Graphics/SVG/1.1/DTD/svg11.dtd">
<svg xmlns:xlink="http://www.w3.org/1999/xlink" width="403.2pt" height="403.2pt" viewBox="0 0 403.2 403.2" xmlns="http://www.w3.org/2000/svg" version="1.1">
 <metadata>
  <rdf:RDF xmlns:dc="http://purl.org/dc/elements/1.1/" xmlns:cc="http://creativecommons.org/ns#" xmlns:rdf="http://www.w3.org/1999/02/22-rdf-syntax-ns#">
   <cc:Work>
    <dc:type rdf:resource="http://purl.org/dc/dcmitype/StillImage"/>
    <dc:date>1980-01-01T00:00:00+00:00</dc:date>
    <dc:format>image/svg+xml</dc:format>
    <dc:creator>
     <cc:Agent>
      <dc:title>Matplotlib v3.10.0, https://matplotlib.org/</dc:title>
     </cc:Agent>
    </dc:creator>
   </cc:Work>
  </rdf:RDF>
 </metadata>
 <defs>
  <style type="text/css">*{stroke-linejoin: round; stroke-linecap: butt}</style>
 </defs>
 <g id="figure_1">
  <g id="patch_1">
   <path d="M 0 403.2 
L 403.2 403.2 
L 403.2 0 
L 0 0 
z
" style="fill: #ffffff"/>
  </g>
  <g id="axes_1">
   <g id="patch_2">
    <path d="M 55.856153 350.94027 
L 396 350.94027 
L 396 21.404246 
L 55.856153 21.404246 
z
" style="fill: #ffffff"/>
   </g>
   <g id="FillBetweenPolyCollection_1">
    <defs>
     <path id="mfb9d0e875d" d="M 71.317237 -110.046128 
L 71.317237 -76.564072 
L 86.042079 -77.832977 
L 100.76692 -87.202531 
L 115.491762 -79.979023 
L 130.216604 -83.329218 
L 144.941446 -91.956651 
L 159.666288 -134.583426 
L 174.39113 -135.43426 
L 189.115972 -95.54777 
L 203.840814 -96.332939 
L 218.565655 -101.959716 
L 233.290497 -127.44073 
L 248.015339 -238.663993 
L 262.740181 -190.602344 
L 277.465023 -249.592906 
L 292.189865 -245.779224 
L 306.914707 -199.247385 
L 321.639549 -233.255952 
L 336.36439 -248.574639 
L 351.089232 -241.220154 
L 365.814074 -249.974997 
L 380.538916 -255.818166 
L 380.538916 -366.816844 
L 380.538916 -366.816844 
L 365.814074 -326.58636 
L 351.089232 -335.107613 
L 336.36439 -358.748099 
L 321.639549 -339.355317 
L 306.914707 -270.284171 
L 292.189865 -335.107613 
L 277.465023 -352.841168 
L 262.740181 -295.454292 
L 248.015339 -341.381328 
L 233.290497 -281.295327 
L 218.565655 -128.087653 
L 203.840814 -132.092385 
L 189.115972 -147.40342 
L 174.39113 -155.520225 
L 159.666288 -160.028303 
L 144.941446 -155.98456 
L 130.216604 -112.169889 
L 115.491762 -128.706899 
L 100.76692 -137.963234 
L 86.042079 -92.630441 
L 71.317237 -110.046128 
z
" style="stroke: #d66b6a; stroke-opacity: 0.2"/>
    </defs>
    <g clip-path="url(#p453d937e45)">
     <use xlink:href="#mfb9d0e875d" x="0" y="403.2" style="fill: #d66b6a; fill-opacity: 0.2; stroke: #d66b6a; stroke-opacity: 0.2"/>
    </g>
   </g>
   <g id="matplotlib.axis_1">
    <g id="xtick_1">
     <g id="line2d_1">
      <path d="M 66.408956 350.94027 
L 66.408956 21.404246 
" clip-path="url(#p453d937e45)" style="fill: none; stroke: #b0b0b0; stroke-opacity: 0.3; stroke-width: 0.8; stroke-linecap: square"/>
     </g>
     <g id="line2d_2">
      <defs>
       <path id="mb997e8f7c2" d="M 0 0 
L 0 3.5 
" style="stroke: #000000; stroke-width: 0.8"/>
      </defs>
      <g>
       <use xlink:href="#mb997e8f7c2" x="66.408956" y="350.94027" style="stroke: #000000; stroke-width: 0.8"/>
      </g>
     </g>
     <g id="text_1">
      <!-- $\mathdefault{0}$ -->
      <g transform="translate(62.506963 369.009858) scale(0.16 -0.16)">
       <defs>
        <path id="CMR17-30" d="M 2688 2038 
C 2688 2430 2682 3099 2413 3613 
C 2176 4063 1798 4224 1466 4224 
C 1158 4224 768 4082 525 3620 
C 269 3137 243 2539 243 2038 
C 243 1671 250 1112 448 623 
C 723 -39 1216 -128 1466 -128 
C 1760 -128 2208 -7 2470 604 
C 2662 1048 2688 1568 2688 2038 
z
M 1466 -26 
C 1056 -26 813 328 723 816 
C 653 1196 653 1749 653 2109 
C 653 2604 653 3015 736 3407 
C 858 3954 1216 4121 1466 4121 
C 1728 4121 2067 3947 2189 3420 
C 2272 3054 2278 2623 2278 2109 
C 2278 1691 2278 1176 2202 797 
C 2067 96 1690 -26 1466 -26 
z
" transform="scale(0.015625)"/>
       </defs>
       <use xlink:href="#CMR17-30" transform="scale(0.996264)"/>
      </g>
     </g>
    </g>
    <g id="xtick_2">
     <g id="line2d_3">
      <path d="M 127.762464 350.94027 
L 127.762464 21.404246 
" clip-path="url(#p453d937e45)" style="fill: none; stroke: #b0b0b0; stroke-opacity: 0.3; stroke-width: 0.8; stroke-linecap: square"/>
     </g>
     <g id="line2d_4">
      <g>
       <use xlink:href="#mb997e8f7c2" x="127.762464" y="350.94027" style="stroke: #000000; stroke-width: 0.8"/>
      </g>
     </g>
     <g id="text_2">
      <!-- $\mathdefault{50}$ -->
      <g transform="translate(119.958477 369.009858) scale(0.16 -0.16)">
       <defs>
        <path id="CMR17-35" d="M 730 3750 
C 794 3724 1056 3641 1325 3641 
C 1920 3641 2246 3961 2432 4140 
C 2432 4191 2432 4224 2394 4224 
C 2387 4224 2374 4224 2323 4198 
C 2099 4102 1837 4032 1517 4032 
C 1325 4032 1037 4055 723 4191 
C 653 4224 640 4224 634 4224 
C 602 4224 595 4217 595 4090 
L 595 2231 
C 595 2113 595 2080 659 2080 
C 691 2080 704 2093 736 2139 
C 941 2435 1222 2560 1542 2560 
C 1766 2560 2246 2415 2246 1293 
C 2246 1087 2246 716 2054 422 
C 1894 159 1645 25 1370 25 
C 947 25 518 319 403 812 
C 429 806 480 793 506 793 
C 589 793 749 838 749 1036 
C 749 1209 627 1280 506 1280 
C 358 1280 262 1190 262 1011 
C 262 454 704 -128 1382 -128 
C 2042 -128 2669 441 2669 1267 
C 2669 2054 2170 2662 1549 2662 
C 1222 2662 947 2540 730 2304 
L 730 3750 
z
" transform="scale(0.015625)"/>
       </defs>
       <use xlink:href="#CMR17-35" transform="scale(0.996264)"/>
       <use xlink:href="#CMR17-30" transform="translate(45.690477 0) scale(0.996264)"/>
      </g>
     </g>
    </g>
    <g id="xtick_3">
     <g id="line2d_5">
      <path d="M 189.115972 350.94027 
L 189.115972 21.404246 
" clip-path="url(#p453d937e45)" style="fill: none; stroke: #b0b0b0; stroke-opacity: 0.3; stroke-width: 0.8; stroke-linecap: square"/>
     </g>
     <g id="line2d_6">
      <g>
       <use xlink:href="#mb997e8f7c2" x="189.115972" y="350.94027" style="stroke: #000000; stroke-width: 0.8"/>
      </g>
     </g>
     <g id="text_3">
      <!-- $\mathdefault{100}$ -->
      <g transform="translate(177.409991 369.009858) scale(0.16 -0.16)">
       <defs>
        <path id="CMR17-31" d="M 1702 4083 
C 1702 4217 1696 4224 1606 4224 
C 1357 3927 979 3833 621 3820 
C 602 3820 570 3820 563 3808 
C 557 3795 557 3782 557 3648 
C 755 3648 1088 3686 1344 3839 
L 1344 467 
C 1344 243 1331 166 781 166 
L 589 166 
L 589 0 
C 896 6 1216 12 1523 12 
C 1830 12 2150 6 2458 0 
L 2458 166 
L 2266 166 
C 1715 166 1702 236 1702 467 
L 1702 4083 
z
" transform="scale(0.015625)"/>
       </defs>
       <use xlink:href="#CMR17-31" transform="scale(0.996264)"/>
       <use xlink:href="#CMR17-30" transform="translate(45.690477 0) scale(0.996264)"/>
       <use xlink:href="#CMR17-30" transform="translate(91.380954 0) scale(0.996264)"/>
      </g>
     </g>
    </g>
    <g id="xtick_4">
     <g id="line2d_7">
      <path d="M 250.469479 350.94027 
L 250.469479 21.404246 
" clip-path="url(#p453d937e45)" style="fill: none; stroke: #b0b0b0; stroke-opacity: 0.3; stroke-width: 0.8; stroke-linecap: square"/>
     </g>
     <g id="line2d_8">
      <g>
       <use xlink:href="#mb997e8f7c2" x="250.469479" y="350.94027" style="stroke: #000000; stroke-width: 0.8"/>
      </g>
     </g>
     <g id="text_4">
      <!-- $\mathdefault{150}$ -->
      <g transform="translate(238.763499 369.009858) scale(0.16 -0.16)">
       <use xlink:href="#CMR17-31" transform="scale(0.996264)"/>
       <use xlink:href="#CMR17-35" transform="translate(45.690477 0) scale(0.996264)"/>
       <use xlink:href="#CMR17-30" transform="translate(91.380954 0) scale(0.996264)"/>
      </g>
     </g>
    </g>
    <g id="xtick_5">
     <g id="line2d_9">
      <path d="M 311.822987 350.94027 
L 311.822987 21.404246 
" clip-path="url(#p453d937e45)" style="fill: none; stroke: #b0b0b0; stroke-opacity: 0.3; stroke-width: 0.8; stroke-linecap: square"/>
     </g>
     <g id="line2d_10">
      <g>
       <use xlink:href="#mb997e8f7c2" x="311.822987" y="350.94027" style="stroke: #000000; stroke-width: 0.8"/>
      </g>
     </g>
     <g id="text_5">
      <!-- $\mathdefault{200}$ -->
      <g transform="translate(300.117007 369.009858) scale(0.16 -0.16)">
       <defs>
        <path id="CMR17-32" d="M 2669 990 
L 2554 990 
C 2490 537 2438 460 2413 422 
C 2381 371 1920 371 1830 371 
L 602 371 
C 832 620 1280 1073 1824 1596 
C 2214 1966 2669 2400 2669 3033 
C 2669 3788 2067 4224 1395 4224 
C 691 4224 262 3603 262 3027 
C 262 2777 448 2745 525 2745 
C 589 2745 781 2783 781 3007 
C 781 3206 614 3264 525 3264 
C 486 3264 448 3257 422 3244 
C 544 3788 915 4057 1306 4057 
C 1862 4057 2227 3616 2227 3033 
C 2227 2477 1901 1998 1536 1583 
L 262 147 
L 262 0 
L 2515 0 
L 2669 990 
z
" transform="scale(0.015625)"/>
       </defs>
       <use xlink:href="#CMR17-32" transform="scale(0.996264)"/>
       <use xlink:href="#CMR17-30" transform="translate(45.690477 0) scale(0.996264)"/>
       <use xlink:href="#CMR17-30" transform="translate(91.380954 0) scale(0.996264)"/>
      </g>
     </g>
    </g>
    <g id="xtick_6">
     <g id="line2d_11">
      <path d="M 373.176495 350.94027 
L 373.176495 21.404246 
" clip-path="url(#p453d937e45)" style="fill: none; stroke: #b0b0b0; stroke-opacity: 0.3; stroke-width: 0.8; stroke-linecap: square"/>
     </g>
     <g id="line2d_12">
      <g>
       <use xlink:href="#mb997e8f7c2" x="373.176495" y="350.94027" style="stroke: #000000; stroke-width: 0.8"/>
      </g>
     </g>
     <g id="text_6">
      <!-- $\mathdefault{250}$ -->
      <g transform="translate(361.470515 369.009858) scale(0.16 -0.16)">
       <use xlink:href="#CMR17-32" transform="scale(0.996264)"/>
       <use xlink:href="#CMR17-35" transform="translate(45.690477 0) scale(0.996264)"/>
       <use xlink:href="#CMR17-30" transform="translate(91.380954 0) scale(0.996264)"/>
      </g>
     </g>
    </g>
    <g id="text_7">
     <!-- Nombre de sommet bloqué (k) -->
     <g transform="translate(103.816947 391.035356) scale(0.2 -0.2)">
      <defs>
       <path id="CMR17-4e" d="M 1312 4275 
C 1267 4345 1261 4352 1139 4352 
L 326 4352 
L 326 4185 
L 448 4185 
C 704 4185 819 4153 838 4147 
L 838 624 
C 838 465 838 166 326 166 
L 326 0 
C 474 12 742 12 902 12 
C 1062 12 1331 12 1478 0 
L 1478 166 
C 966 166 966 465 966 624 
L 966 4057 
C 1011 4019 1011 4007 1056 3943 
L 3430 76 
C 3475 0 3494 0 3526 0 
C 3590 0 3590 19 3590 140 
L 3590 3726 
C 3590 3885 3590 4185 4102 4185 
L 4102 4352 
C 3955 4339 3686 4339 3526 4339 
C 3366 4339 3098 4339 2950 4352 
L 2950 4185 
C 3462 4185 3462 3885 3462 3726 
L 3462 777 
L 1312 4275 
z
" transform="scale(0.015625)"/>
       <path id="CMR17-6f" d="M 2758 1356 
C 2758 2176 2163 2816 1466 2816 
C 768 2816 173 2176 173 1356 
C 173 550 768 -64 1466 -64 
C 2163 -64 2758 550 2758 1356 
z
M 1466 51 
C 1165 51 909 230 762 480 
C 602 768 582 1126 582 1408 
C 582 1676 595 2009 762 2297 
C 890 2508 1139 2713 1466 2713 
C 1754 2713 1997 2553 2150 2329 
C 2349 2028 2349 1606 2349 1408 
C 2349 1158 2336 774 2163 467 
C 1984 172 1709 51 1466 51 
z
" transform="scale(0.015625)"/>
       <path id="CMR17-6d" d="M 4326 1954 
C 4326 2276 4269 2816 3507 2816 
C 3072 2816 2771 2520 2656 2173 
L 2650 2173 
C 2573 2700 2195 2816 1837 2816 
C 1331 2816 1069 2424 973 2166 
L 966 2166 
L 966 2816 
L 211 2745 
L 211 2578 
C 589 2578 646 2540 646 2231 
L 646 443 
C 646 198 621 166 211 166 
L 211 0 
C 365 12 646 12 813 12 
C 979 12 1267 12 1421 0 
L 1421 166 
C 1011 166 986 192 986 443 
L 986 1678 
C 986 2269 1344 2713 1792 2713 
C 2266 2713 2317 2289 2317 1980 
L 2317 443 
C 2317 198 2291 166 1882 166 
L 1882 0 
C 2035 12 2317 12 2483 12 
C 2650 12 2938 12 3091 0 
L 3091 166 
C 2682 166 2656 192 2656 443 
L 2656 1678 
C 2656 2269 3014 2713 3462 2713 
C 3936 2713 3987 2289 3987 1980 
L 3987 443 
C 3987 198 3962 166 3552 166 
L 3552 0 
C 3706 12 3987 12 4154 12 
C 4320 12 4608 12 4762 0 
L 4762 166 
C 4352 166 4326 192 4326 443 
L 4326 1954 
z
" transform="scale(0.015625)"/>
       <path id="CMR17-62" d="M 960 4416 
L 198 4345 
L 198 4179 
C 576 4179 634 4141 634 3843 
L 634 -13 
L 749 -13 
L 934 445 
C 1120 141 1395 -64 1766 -64 
C 2406 -64 3053 503 3053 1382 
C 3053 2209 2477 2816 1830 2816 
C 1434 2816 1152 2603 960 2351 
L 960 4416 
z
M 973 2022 
C 973 2138 973 2157 1062 2293 
C 1312 2681 1670 2713 1792 2713 
C 1984 2713 2643 2610 2643 1388 
C 2643 109 1888 38 1734 38 
C 1536 38 1248 115 1043 490 
C 973 613 973 626 973 742 
L 973 2022 
z
" transform="scale(0.015625)"/>
       <path id="CMR17-72" d="M 960 1517 
C 960 2134 1222 2713 1702 2713 
C 1747 2713 1792 2707 1837 2687 
C 1837 2687 1696 2642 1696 2475 
C 1696 2321 1818 2257 1914 2257 
C 1990 2257 2131 2302 2131 2482 
C 2131 2687 1926 2816 1709 2816 
C 1222 2816 1011 2340 947 2115 
L 941 2115 
L 941 2816 
L 198 2745 
L 198 2578 
C 576 2578 634 2540 634 2231 
L 634 443 
C 634 198 608 166 198 166 
L 198 0 
C 352 12 646 12 813 12 
C 998 12 1325 12 1498 0 
L 1498 166 
C 1037 166 960 166 960 455 
L 960 1517 
z
" transform="scale(0.015625)"/>
       <path id="CMR17-65" d="M 2438 1503 
C 2464 1529 2464 1542 2464 1606 
C 2464 2251 2118 2816 1389 2816 
C 710 2816 173 2175 173 1394 
C 173 554 781 -64 1459 -64 
C 2176 -64 2458 619 2458 755 
C 2458 800 2419 800 2406 800 
C 2362 800 2355 787 2330 709 
C 2189 270 1837 51 1504 51 
C 1229 51 954 206 781 490 
C 582 819 582 1200 582 1503 
L 2438 1503 
z
M 589 1600 
C 634 2511 1126 2713 1382 2713 
C 1818 2713 2112 2308 2118 1600 
L 589 1600 
z
" transform="scale(0.015625)"/>
       <path id="CMR17-64" d="M 1869 4345 
L 1869 4179 
C 2246 4179 2304 4141 2304 3843 
L 2304 2371 
C 2278 2403 2016 2816 1498 2816 
C 845 2816 211 2228 211 1376 
C 211 529 806 -64 1434 -64 
C 1978 -64 2259 361 2291 406 
L 2291 -64 
L 3066 -13 
L 3066 154 
C 2688 154 2630 193 2630 503 
L 2630 4416 
L 1869 4345 
z
M 2291 762 
C 2291 568 2176 393 2029 264 
C 1811 70 1594 38 1472 38 
C 1286 38 621 135 621 1369 
C 621 2636 1363 2713 1530 2713 
C 1824 2713 2061 2545 2208 2313 
C 2291 2177 2291 2157 2291 2041 
L 2291 762 
z
" transform="scale(0.015625)"/>
       <path id="CMR17-73" d="M 1978 2688 
C 1978 2803 1971 2809 1933 2809 
C 1907 2809 1901 2803 1824 2707 
C 1805 2681 1747 2617 1728 2592 
C 1523 2809 1235 2816 1126 2816 
C 416 2816 160 2444 160 2073 
C 160 1497 813 1363 998 1324 
C 1402 1241 1542 1216 1677 1100 
C 1760 1024 1901 883 1901 652 
C 1901 384 1747 38 1158 38 
C 602 38 403 460 288 1024 
C 269 1113 269 1120 218 1120 
C 166 1120 160 1113 160 985 
L 160 64 
C 160 -52 166 -58 205 -58 
C 237 -58 243 -52 275 0 
C 314 57 410 211 448 275 
C 576 102 800 -64 1158 -64 
C 1792 -64 2131 281 2131 780 
C 2131 1107 1958 1280 1875 1356 
C 1683 1555 1459 1600 1190 1651 
C 838 1728 390 1817 390 2208 
C 390 2374 480 2726 1126 2726 
C 1811 2726 1850 2086 1862 1881 
C 1869 1849 1901 1843 1920 1843 
C 1978 1843 1978 1862 1978 1971 
L 1978 2688 
z
" transform="scale(0.015625)"/>
       <path id="CMR17-74" d="M 966 2585 
L 1862 2585 
L 1862 2752 
L 966 2752 
L 966 3968 
L 851 3968 
C 838 3292 614 2700 70 2687 
L 70 2585 
L 627 2585 
L 627 778 
C 627 655 627 -64 1370 -64 
C 1747 -64 1965 308 1965 784 
L 1965 1151 
L 1850 1151 
L 1850 790 
C 1850 347 1677 51 1408 51 
C 1222 51 966 179 966 765 
L 966 2585 
z
" transform="scale(0.015625)"/>
       <path id="CMR17-6c" d="M 979 4416 
L 218 4345 
L 218 4179 
C 595 4179 653 4141 653 3835 
L 653 439 
C 653 198 627 166 218 166 
L 218 0 
C 371 12 653 12 813 12 
C 979 12 1261 12 1414 0 
L 1414 166 
C 1005 166 979 191 979 439 
L 979 4416 
z
" transform="scale(0.015625)"/>
       <path id="CMR17-71" d="M 2630 2816 
L 2528 2816 
L 2336 2177 
C 2189 2519 1920 2816 1491 2816 
C 838 2816 211 2228 211 1376 
C 211 529 800 -64 1440 -64 
C 1933 -64 2208 316 2291 458 
L 2291 -834 
C 2291 -1081 2266 -1114 1856 -1114 
L 1856 -1280 
C 2010 -1268 2291 -1268 2458 -1268 
C 2624 -1268 2912 -1268 3066 -1280 
L 3066 -1114 
C 2656 -1114 2630 -1088 2630 -834 
L 2630 2816 
z
M 2304 871 
C 2304 594 2074 335 2054 316 
C 1856 90 1626 38 1472 38 
C 992 38 621 652 621 1369 
C 621 2125 1043 2700 1536 2700 
C 2048 2700 2304 2112 2304 1776 
L 2304 871 
z
" transform="scale(0.015625)"/>
       <path id="CMR17-75" d="M 1882 2745 
L 1882 2579 
C 2259 2579 2317 2540 2317 2229 
L 2317 1053 
C 2317 510 2029 38 1555 38 
C 1030 38 986 355 986 691 
L 986 2816 
L 211 2745 
L 211 2579 
C 467 2579 640 2579 646 2320 
L 646 1079 
C 646 646 646 368 813 187 
C 896 103 1056 -64 1517 -64 
C 2061 -64 2272 400 2323 536 
L 2330 536 
L 2330 -64 
L 3091 -13 
L 3091 154 
C 2714 154 2656 193 2656 503 
L 2656 2816 
L 1882 2745 
z
" transform="scale(0.015625)"/>
       <path id="CMR17-13" d="M 2221 4157 
C 2298 4226 2317 4239 2317 4308 
C 2317 4403 2234 4480 2144 4480 
C 2067 4480 2042 4447 1978 4371 
L 1254 3468 
C 1210 3411 1210 3404 1210 3398 
C 1210 3391 1267 3334 1280 3321 
L 2221 4157 
z
" transform="scale(0.015625)"/>
       <path id="CMR17-28" d="M 1958 -1562 
C 1958 -1556 1958 -1543 1939 -1524 
C 1645 -1223 858 -403 858 1596 
C 858 3595 1632 4408 1946 4729 
C 1946 4735 1958 4748 1958 4767 
C 1958 4787 1939 4800 1914 4800 
C 1843 4800 1299 4325 986 3620 
C 666 2909 576 2218 576 1603 
C 576 1141 621 360 1005 -467 
C 1312 -1133 1837 -1600 1914 -1600 
C 1946 -1600 1958 -1588 1958 -1562 
z
" transform="scale(0.015625)"/>
       <path id="CMR17-6b" d="M 1670 1679 
C 1664 1692 1632 1730 1632 1749 
C 1632 1762 2086 2175 2144 2226 
C 2509 2532 2739 2563 2906 2570 
L 2906 2735 
C 2867 2735 2854 2735 2848 2729 
L 2534 2722 
C 2355 2722 2080 2722 1907 2735 
L 1907 2570 
C 1997 2563 2061 2513 2061 2423 
C 2061 2296 1933 2175 1926 2175 
L 960 1298 
L 960 4416 
L 198 4345 
L 198 4179 
C 576 4179 634 4141 634 3835 
L 634 439 
C 634 198 608 166 198 166 
L 198 0 
C 352 12 634 12 794 12 
C 954 12 1235 12 1389 0 
L 1389 166 
C 979 166 954 191 954 439 
L 954 1139 
L 1395 1540 
L 2042 586 
C 2118 471 2182 382 2182 299 
C 2182 185 2067 166 1990 166 
L 1990 0 
C 2144 12 2419 12 2579 12 
C 2694 12 2931 6 3040 0 
L 3040 166 
C 2739 166 2669 223 2477 503 
L 1670 1679 
z
" transform="scale(0.015625)"/>
       <path id="CMR17-29" d="M 1683 1596 
C 1683 2057 1638 2839 1254 3665 
C 947 4332 422 4800 346 4800 
C 326 4800 301 4793 301 4761 
C 301 4748 307 4742 314 4729 
C 621 4408 1402 3595 1402 1603 
C 1402 -396 627 -1210 314 -1530 
C 307 -1543 301 -1549 301 -1562 
C 301 -1594 326 -1600 346 -1600 
C 416 -1600 960 -1127 1274 -422 
C 1594 289 1683 981 1683 1596 
z
" transform="scale(0.015625)"/>
      </defs>
      <use xlink:href="#CMR17-4e" transform="scale(0.996264)"/>
      <use xlink:href="#CMR17-6f" transform="translate(69.07243 0) scale(0.996264)"/>
      <use xlink:href="#CMR17-6d" transform="translate(114.762907 0) scale(0.996264)"/>
      <use xlink:href="#CMR17-62" transform="translate(189.080043 0) scale(0.996264)"/>
      <use xlink:href="#CMR17-72" transform="translate(239.975413 0) scale(0.996264)"/>
      <use xlink:href="#CMR17-65" transform="translate(275.25618 0) scale(0.996264)"/>
      <use xlink:href="#CMR17-64" transform="translate(345.817807 0) scale(0.996264)"/>
      <use xlink:href="#CMR17-65" transform="translate(396.713177 0) scale(0.996264)"/>
      <use xlink:href="#CMR17-73" transform="translate(467.274804 0) scale(0.996264)"/>
      <use xlink:href="#CMR17-6f" transform="translate(503.076141 0) scale(0.996264)"/>
      <use xlink:href="#CMR17-6d" transform="translate(548.766619 0) scale(0.996264)"/>
      <use xlink:href="#CMR17-6d" transform="translate(625.686208 0) scale(0.996264)"/>
      <use xlink:href="#CMR17-65" transform="translate(702.605798 0) scale(0.996264)"/>
      <use xlink:href="#CMR17-74" transform="translate(743.091459 0) scale(0.996264)"/>
      <use xlink:href="#CMR17-62" transform="translate(808.448193 0) scale(0.996264)"/>
      <use xlink:href="#CMR17-6c" transform="translate(859.343563 0) scale(0.996264)"/>
      <use xlink:href="#CMR17-6f" transform="translate(884.214621 0) scale(0.996264)"/>
      <use xlink:href="#CMR17-71" transform="translate(932.507537 0) scale(0.996264)"/>
      <use xlink:href="#CMR17-75" transform="translate(980.800453 0) scale(0.996264)"/>
      <use xlink:href="#CMR17-13" transform="translate(1029.093414 0) scale(0.996264)"/>
      <use xlink:href="#CMR17-65" transform="translate(1031.695823 0) scale(0.996264)"/>
      <use xlink:href="#CMR17-28" transform="translate(1102.257449 0) scale(0.996264)"/>
      <use xlink:href="#CMR17-6b" transform="translate(1137.538217 0) scale(0.996264)"/>
      <use xlink:href="#CMR17-29" transform="translate(1185.831133 0) scale(0.996264)"/>
     </g>
    </g>
   </g>
   <g id="matplotlib.axis_2">
    <g id="ytick_1">
     <g id="line2d_13">
      <path d="M 55.856153 323.566059 
L 396 323.566059 
" clip-path="url(#p453d937e45)" style="fill: none; stroke: #b0b0b0; stroke-opacity: 0.3; stroke-width: 0.8; stroke-linecap: square"/>
     </g>
     <g id="line2d_14">
      <defs>
       <path id="m93f8be456e" d="M 0 0 
L -3.5 0 
" style="stroke: #000000; stroke-width: 0.8"/>
      </defs>
      <g>
       <use xlink:href="#m93f8be456e" x="55.856153" y="323.566059" style="stroke: #000000; stroke-width: 0.8"/>
      </g>
     </g>
     <g id="text_8">
      <!-- $\mathdefault{3.0}$ -->
      <g transform="translate(28.91263 329.100853) scale(0.16 -0.16)">
       <defs>
        <path id="CMR17-33" d="M 1414 2176 
C 1984 2176 2234 1673 2234 1094 
C 2234 322 1824 25 1453 25 
C 1114 25 563 193 390 691 
C 422 678 454 678 486 678 
C 640 678 755 780 755 947 
C 755 1132 614 1216 486 1216 
C 378 1216 211 1164 211 927 
C 211 335 787 -128 1466 -128 
C 2176 -128 2720 432 2720 1087 
C 2720 1718 2208 2176 1600 2246 
C 2086 2347 2554 2776 2554 3353 
C 2554 3856 2048 4224 1472 4224 
C 890 4224 378 3862 378 3347 
C 378 3123 544 3084 627 3084 
C 762 3084 877 3167 877 3334 
C 877 3500 762 3584 627 3584 
C 602 3584 570 3584 544 3571 
C 730 3999 1235 4076 1459 4076 
C 1683 4076 2106 3966 2106 3347 
C 2106 3167 2080 2851 1862 2574 
C 1670 2329 1453 2316 1242 2297 
C 1210 2297 1062 2284 1037 2284 
C 992 2278 966 2272 966 2227 
C 966 2182 973 2176 1101 2176 
L 1414 2176 
z
" transform="scale(0.015625)"/>
        <path id="CMMI12-3a" d="M 1178 307 
C 1178 492 1024 620 870 620 
C 685 620 557 467 557 313 
C 557 128 710 0 864 0 
C 1050 0 1178 153 1178 307 
z
" transform="scale(0.015625)"/>
       </defs>
       <use xlink:href="#CMR17-33" transform="scale(0.996264)"/>
       <use xlink:href="#CMMI12-3a" transform="translate(45.690477 0) scale(0.996264)"/>
       <use xlink:href="#CMR17-30" transform="translate(72.787654 0) scale(0.996264)"/>
      </g>
     </g>
    </g>
    <g id="ytick_2">
     <g id="line2d_15">
      <path d="M 55.856153 259.346948 
L 396 259.346948 
" clip-path="url(#p453d937e45)" style="fill: none; stroke: #b0b0b0; stroke-opacity: 0.3; stroke-width: 0.8; stroke-linecap: square"/>
     </g>
     <g id="line2d_16">
      <g>
       <use xlink:href="#m93f8be456e" x="55.856153" y="259.346948" style="stroke: #000000; stroke-width: 0.8"/>
      </g>
     </g>
     <g id="text_9">
      <!-- $\mathdefault{3.5}$ -->
      <g transform="translate(28.91263 264.881742) scale(0.16 -0.16)">
       <use xlink:href="#CMR17-33" transform="scale(0.996264)"/>
       <use xlink:href="#CMMI12-3a" transform="translate(45.690477 0) scale(0.996264)"/>
       <use xlink:href="#CMR17-35" transform="translate(72.787654 0) scale(0.996264)"/>
      </g>
     </g>
    </g>
    <g id="ytick_3">
     <g id="line2d_17">
      <path d="M 55.856153 195.127836 
L 396 195.127836 
" clip-path="url(#p453d937e45)" style="fill: none; stroke: #b0b0b0; stroke-opacity: 0.3; stroke-width: 0.8; stroke-linecap: square"/>
     </g>
     <g id="line2d_18">
      <g>
       <use xlink:href="#m93f8be456e" x="55.856153" y="195.127836" style="stroke: #000000; stroke-width: 0.8"/>
      </g>
     </g>
     <g id="text_10">
      <!-- $\mathdefault{4.0}$ -->
      <g transform="translate(28.91263 200.66263) scale(0.16 -0.16)">
       <defs>
        <path id="CMR17-34" d="M 2150 4147 
C 2150 4281 2144 4288 2029 4288 
L 128 1254 
L 128 1088 
L 1779 1088 
L 1779 460 
C 1779 230 1766 166 1318 166 
L 1197 166 
L 1197 0 
C 1402 12 1747 12 1965 12 
C 2182 12 2528 12 2733 0 
L 2733 166 
L 2611 166 
C 2163 166 2150 230 2150 460 
L 2150 1088 
L 2803 1088 
L 2803 1254 
L 2150 1254 
L 2150 4147 
z
M 1798 3723 
L 1798 1254 
L 256 1254 
L 1798 3723 
z
" transform="scale(0.015625)"/>
       </defs>
       <use xlink:href="#CMR17-34" transform="scale(0.996264)"/>
       <use xlink:href="#CMMI12-3a" transform="translate(45.690477 0) scale(0.996264)"/>
       <use xlink:href="#CMR17-30" transform="translate(72.787654 0) scale(0.996264)"/>
      </g>
     </g>
    </g>
    <g id="ytick_4">
     <g id="line2d_19">
      <path d="M 55.856153 130.908724 
L 396 130.908724 
" clip-path="url(#p453d937e45)" style="fill: none; stroke: #b0b0b0; stroke-opacity: 0.3; stroke-width: 0.8; stroke-linecap: square"/>
     </g>
     <g id="line2d_20">
      <g>
       <use xlink:href="#m93f8be456e" x="55.856153" y="130.908724" style="stroke: #000000; stroke-width: 0.8"/>
      </g>
     </g>
     <g id="text_11">
      <!-- $\mathdefault{4.5}$ -->
      <g transform="translate(28.91263 136.443519) scale(0.16 -0.16)">
       <use xlink:href="#CMR17-34" transform="scale(0.996264)"/>
       <use xlink:href="#CMMI12-3a" transform="translate(45.690477 0) scale(0.996264)"/>
       <use xlink:href="#CMR17-35" transform="translate(72.787654 0) scale(0.996264)"/>
      </g>
     </g>
    </g>
    <g id="ytick_5">
     <g id="line2d_21">
      <path d="M 55.856153 66.689613 
L 396 66.689613 
" clip-path="url(#p453d937e45)" style="fill: none; stroke: #b0b0b0; stroke-opacity: 0.3; stroke-width: 0.8; stroke-linecap: square"/>
     </g>
     <g id="line2d_22">
      <g>
       <use xlink:href="#m93f8be456e" x="55.856153" y="66.689613" style="stroke: #000000; stroke-width: 0.8"/>
      </g>
     </g>
     <g id="text_12">
      <!-- $\mathdefault{5.0}$ -->
      <g transform="translate(28.91263 72.224407) scale(0.16 -0.16)">
       <use xlink:href="#CMR17-35" transform="scale(0.996264)"/>
       <use xlink:href="#CMMI12-3a" transform="translate(45.690477 0) scale(0.996264)"/>
       <use xlink:href="#CMR17-30" transform="translate(72.787654 0) scale(0.996264)"/>
      </g>
     </g>
    </g>
    <g id="text_13">
     <!-- Carré du temps d'exécution -->
     <g transform="translate(21.036997 296.952024) rotate(-90) scale(0.2 -0.2)">
      <defs>
       <path id="CMR17-43" d="M 3974 4351 
C 3974 4467 3968 4473 3930 4473 
C 3904 4473 3898 4467 3853 4390 
L 3571 3849 
C 3258 4249 2874 4480 2381 4480 
C 1286 4480 294 3507 294 2179 
C 294 837 1286 -128 2387 -128 
C 3366 -128 3974 741 3974 1482 
C 3974 1547 3974 1573 3917 1573 
C 3866 1573 3866 1553 3859 1495 
C 3808 592 3168 38 2477 38 
C 1824 38 781 502 781 2179 
C 781 3862 1843 4313 2464 4313 
C 3187 4313 3712 3681 3834 2785 
C 3846 2707 3846 2695 3904 2695 
C 3974 2695 3974 2707 3974 2824 
L 3974 4351 
z
" transform="scale(0.015625)"/>
       <path id="CMR17-61" d="M 2304 1656 
C 2304 2048 2304 2275 2035 2534 
C 1798 2751 1523 2816 1306 2816 
C 800 2816 435 2408 435 1977 
C 435 1740 627 1728 666 1728 
C 749 1728 896 1779 896 1958 
C 896 2118 774 2188 666 2188 
C 640 2188 608 2182 589 2176 
C 723 2594 1069 2713 1293 2713 
C 1613 2713 1965 2421 1965 1875 
L 1965 1632 
C 1587 1619 1133 1568 774 1373 
C 371 1147 256 822 256 576 
C 256 77 832 -64 1171 -64 
C 1523 -64 1850 135 1990 505 
C 2003 219 2182 -39 2464 -39 
C 2598 -39 2938 51 2938 563 
L 2938 926 
L 2822 926 
L 2822 557 
C 2822 161 2650 109 2566 109 
C 2304 109 2304 446 2304 732 
L 2304 1656 
z
M 1965 887 
C 1965 323 1568 38 1216 38 
C 896 38 646 278 646 576 
C 646 771 730 1114 1101 1322 
C 1408 1497 1760 1523 1965 1536 
L 1965 887 
z
" transform="scale(0.015625)"/>
       <path id="CMR17-70" d="M 1408 -1114 
C 998 -1114 973 -1088 973 -834 
L 973 380 
C 1158 109 1427 -64 1766 -64 
C 2406 -64 3053 503 3053 1382 
C 3053 2196 2496 2816 1837 2816 
C 1453 2816 1139 2603 960 2345 
L 960 2816 
L 198 2745 
L 198 2577 
C 576 2577 634 2539 634 2228 
L 634 -834 
C 634 -1081 608 -1114 198 -1114 
L 198 -1280 
C 352 -1268 634 -1268 800 -1268 
C 966 -1268 1254 -1268 1408 -1280 
L 1408 -1114 
z
M 973 2015 
C 973 2106 973 2241 1222 2481 
C 1254 2506 1472 2700 1792 2700 
C 2259 2700 2643 2112 2643 1376 
C 2643 639 2234 38 1728 38 
C 1498 38 1248 148 1056 451 
C 973 594 973 632 973 736 
L 973 2015 
z
" transform="scale(0.015625)"/>
       <path id="CMR17-27" d="M 1024 4012 
C 1037 3942 1043 3916 1043 3810 
C 1043 3418 883 3058 634 2803 
C 608 2777 595 2758 595 2732 
C 595 2707 621 2681 646 2681 
C 691 2681 1146 3120 1146 3804 
C 1146 3942 1133 4416 800 4416 
C 659 4416 538 4319 538 4153 
C 538 3987 659 3891 800 3891 
C 858 3891 966 3910 1024 4012 
z
" transform="scale(0.015625)"/>
       <path id="CMR17-78" d="M 1664 1491 
C 1856 1740 2074 2022 2253 2233 
C 2464 2476 2707 2579 2989 2585 
L 2989 2752 
C 2880 2745 2656 2739 2541 2739 
C 2368 2739 2170 2739 2022 2752 
L 2022 2585 
C 2112 2572 2163 2508 2163 2419 
C 2163 2304 2099 2233 2067 2188 
L 1594 1587 
L 1030 2323 
C 973 2393 973 2406 973 2438 
C 973 2515 1037 2579 1146 2585 
L 1146 2752 
C 992 2739 717 2739 557 2739 
C 384 2739 179 2739 38 2752 
L 38 2585 
C 384 2585 461 2560 614 2368 
L 1350 1414 
C 1363 1401 1395 1363 1395 1344 
C 1395 1318 838 633 768 544 
C 480 198 179 172 6 166 
L 6 0 
C 115 6 339 12 454 12 
C 582 12 864 12 979 0 
L 979 166 
C 941 172 838 185 838 332 
C 838 448 890 518 947 595 
L 1478 1248 
L 2035 524 
C 2086 454 2163 358 2163 313 
C 2163 224 2086 172 1984 166 
L 1984 0 
C 2138 12 2413 12 2573 12 
C 2746 12 2950 12 3091 0 
L 3091 166 
C 2771 166 2675 179 2522 377 
L 1664 1491 
z
" transform="scale(0.015625)"/>
       <path id="CMR17-63" d="M 2234 2240 
C 2112 2240 1933 2240 1933 2015 
C 1933 1836 2080 1785 2163 1785 
C 2208 1785 2394 1804 2394 2028 
C 2394 2476 1958 2816 1466 2816 
C 787 2816 211 2201 211 1379 
C 211 521 813 -64 1466 -64 
C 2259 -64 2458 676 2458 747 
C 2458 773 2451 792 2406 792 
C 2362 792 2355 786 2330 702 
C 2163 180 1798 51 1523 51 
C 1114 51 621 431 621 1385 
C 621 2358 1094 2700 1472 2700 
C 1722 2700 2093 2582 2234 2240 
z
" transform="scale(0.015625)"/>
       <path id="CMR17-69" d="M 992 3961 
C 992 4102 877 4224 730 4224 
C 589 4224 467 4108 467 3961 
C 467 3820 582 3699 730 3699 
C 870 3699 992 3814 992 3961 
z
M 243 2745 
L 243 2579 
C 602 2579 653 2540 653 2231 
L 653 443 
C 653 198 627 166 218 166 
L 218 0 
C 371 12 646 12 806 12 
C 960 12 1222 12 1370 0 
L 1370 166 
C 992 166 979 205 979 436 
L 979 2816 
L 243 2745 
z
" transform="scale(0.015625)"/>
       <path id="CMR17-6e" d="M 2656 1954 
C 2656 2282 2592 2816 1837 2816 
C 1331 2816 1069 2424 973 2166 
L 966 2166 
L 966 2816 
L 211 2745 
L 211 2578 
C 589 2578 646 2540 646 2231 
L 646 443 
C 646 198 621 166 211 166 
L 211 0 
C 365 12 646 12 813 12 
C 979 12 1267 12 1421 0 
L 1421 166 
C 1011 166 986 192 986 443 
L 986 1678 
C 986 2269 1344 2713 1792 2713 
C 2266 2713 2317 2289 2317 1980 
L 2317 443 
C 2317 198 2291 166 1882 166 
L 1882 0 
C 2035 12 2317 12 2483 12 
C 2650 12 2938 12 3091 0 
L 3091 166 
C 2682 166 2656 192 2656 443 
L 2656 1954 
z
" transform="scale(0.015625)"/>
      </defs>
      <use xlink:href="#CMR17-43" transform="scale(0.996264)"/>
      <use xlink:href="#CMR17-61" transform="translate(66.509881 0) scale(0.996264)"/>
      <use xlink:href="#CMR17-72" transform="translate(112.200358 0) scale(0.996264)"/>
      <use xlink:href="#CMR17-72" transform="translate(147.481125 0) scale(0.996264)"/>
      <use xlink:href="#CMR17-13" transform="translate(180.159485 0) scale(0.996264)"/>
      <use xlink:href="#CMR17-65" transform="translate(182.761893 0) scale(0.996264)"/>
      <use xlink:href="#CMR17-64" transform="translate(253.32352 0) scale(0.996264)"/>
      <use xlink:href="#CMR17-75" transform="translate(304.21889 0) scale(0.996264)"/>
      <use xlink:href="#CMR17-74" transform="translate(385.190226 0) scale(0.996264)"/>
      <use xlink:href="#CMR17-65" transform="translate(420.470994 0) scale(0.996264)"/>
      <use xlink:href="#CMR17-6d" transform="translate(460.956654 0) scale(0.996264)"/>
      <use xlink:href="#CMR17-70" transform="translate(537.876244 0) scale(0.996264)"/>
      <use xlink:href="#CMR17-73" transform="translate(588.771614 0) scale(0.996264)"/>
      <use xlink:href="#CMR17-64" transform="translate(654.648918 0) scale(0.996264)"/>
      <use xlink:href="#CMR17-27" transform="translate(705.544288 0) scale(0.996264)"/>
      <use xlink:href="#CMR17-65" transform="translate(730.415346 0) scale(0.996264)"/>
      <use xlink:href="#CMR17-78" transform="translate(770.901007 0) scale(0.996264)"/>
      <use xlink:href="#CMR17-13" transform="translate(816.591514 0) scale(0.996264)"/>
      <use xlink:href="#CMR17-65" transform="translate(819.193922 0) scale(0.996264)"/>
      <use xlink:href="#CMR17-63" transform="translate(859.679583 0) scale(0.996264)"/>
      <use xlink:href="#CMR17-75" transform="translate(900.165243 0) scale(0.996264)"/>
      <use xlink:href="#CMR17-74" transform="translate(951.060613 0) scale(0.996264)"/>
      <use xlink:href="#CMR17-69" transform="translate(986.341381 0) scale(0.996264)"/>
      <use xlink:href="#CMR17-6f" transform="translate(1011.212439 0) scale(0.996264)"/>
      <use xlink:href="#CMR17-6e" transform="translate(1056.902917 0) scale(0.996264)"/>
     </g>
    </g>
    <g id="text_14">
     <!-- $\times\mathdefault{10^{−6}}\mathdefault{}$ -->
     <g transform="translate(55.856153 18.404246) scale(0.16 -0.16)">
      <defs>
       <path id="CMSY10-2" d="M 2490 1775 
L 1210 3046 
C 1133 3123 1120 3136 1069 3136 
C 1005 3136 941 3078 941 3008 
C 941 2963 954 2950 1024 2880 
L 2304 1596 
L 1024 313 
C 954 243 941 230 941 185 
C 941 115 1005 57 1069 57 
C 1120 57 1133 70 1210 147 
L 2483 1418 
L 3808 95 
C 3821 89 3866 57 3904 57 
C 3981 57 4032 115 4032 185 
C 4032 198 4032 223 4013 255 
C 4006 268 2989 1271 2669 1596 
L 3840 2765 
C 3872 2803 3968 2886 4000 2925 
C 4006 2937 4032 2963 4032 3008 
C 4032 3078 3981 3136 3904 3136 
C 3853 3136 3827 3110 3757 3040 
L 2490 1775 
z
" transform="scale(0.015625)"/>
       <path id="CMSY10-0" d="M 4218 1472 
C 4326 1472 4442 1472 4442 1600 
C 4442 1728 4326 1728 4218 1728 
L 755 1728 
C 646 1728 531 1728 531 1600 
C 531 1472 646 1472 755 1472 
L 4218 1472 
z
" transform="scale(0.015625)"/>
       <path id="CMR17-36" d="M 678 2198 
C 678 3712 1395 4076 1811 4076 
C 1946 4076 2272 4049 2400 3782 
C 2298 3782 2106 3782 2106 3558 
C 2106 3385 2246 3328 2336 3328 
C 2394 3328 2566 3353 2566 3571 
C 2566 3987 2246 4224 1805 4224 
C 1043 4224 243 3411 243 2011 
C 243 257 966 -128 1478 -128 
C 2099 -128 2688 431 2688 1295 
C 2688 2101 2170 2688 1517 2688 
C 1126 2688 838 2430 678 1979 
L 678 2198 
z
M 1478 25 
C 691 25 691 1212 691 1450 
C 691 1914 909 2585 1504 2585 
C 1613 2585 1926 2585 2138 2140 
C 2253 1889 2253 1624 2253 1302 
C 2253 954 2253 696 2118 438 
C 1978 173 1773 25 1478 25 
z
" transform="scale(0.015625)"/>
      </defs>
      <use xlink:href="#CMSY10-2" transform="scale(0.996264)"/>
      <use xlink:href="#CMR17-31" transform="translate(77.487468 0) scale(0.996264)"/>
      <use xlink:href="#CMR17-30" transform="translate(123.177945 0) scale(0.996264)"/>
      <use xlink:href="#CMSY10-0" transform="translate(168.868422 36.153639) scale(0.697382)"/>
      <use xlink:href="#CMR17-36" transform="translate(223.109415 36.153639) scale(0.697382)"/>
     </g>
    </g>
   </g>
   <g id="line2d_23">
    <path d="M 71.317237 303.87968 
L 86.042079 320.069006 
L 100.76692 291.894611 
L 115.491762 300.81356 
L 130.216604 306.034486 
L 144.941446 290.549447 
L 159.666288 257.324024 
L 174.39113 258.699775 
L 189.115972 281.88151 
L 203.840814 290.675441 
L 218.565655 290.379215 
L 233.290497 202.169641 
L 248.015339 126.248602 
L 262.740181 165.792323 
L 277.465023 120.259085 
L 292.189865 117.552496 
L 306.914707 172.881941 
L 321.639549 121.270818 
L 336.36439 108.852866 
L 351.089232 116.903148 
L 365.814074 120.888244 
L 380.538916 107.880847 
" clip-path="url(#p453d937e45)" style="fill: none; stroke: #d66b6a; stroke-width: 2; stroke-linecap: square"/>
    <defs>
     <path id="mf7b71136db" d="M 0 3 
C 0.795609 3 1.55874 2.683901 2.12132 2.12132 
C 2.683901 1.55874 3 0.795609 3 0 
C 3 -0.795609 2.683901 -1.55874 2.12132 -2.12132 
C 1.55874 -2.683901 0.795609 -3 0 -3 
C -0.795609 -3 -1.55874 -2.683901 -2.12132 -2.12132 
C -2.683901 -1.55874 -3 -0.795609 -3 0 
C -3 0.795609 -2.683901 1.55874 -2.12132 2.12132 
C -1.55874 2.683901 -0.795609 3 0 3 
z
" style="stroke: #d66b6a"/>
    </defs>
    <g clip-path="url(#p453d937e45)">
     <use xlink:href="#mf7b71136db" x="71.317237" y="303.87968" style="fill: #d66b6a; stroke: #d66b6a"/>
     <use xlink:href="#mf7b71136db" x="86.042079" y="320.069006" style="fill: #d66b6a; stroke: #d66b6a"/>
     <use xlink:href="#mf7b71136db" x="100.76692" y="291.894611" style="fill: #d66b6a; stroke: #d66b6a"/>
     <use xlink:href="#mf7b71136db" x="115.491762" y="300.81356" style="fill: #d66b6a; stroke: #d66b6a"/>
     <use xlink:href="#mf7b71136db" x="130.216604" y="306.034486" style="fill: #d66b6a; stroke: #d66b6a"/>
     <use xlink:href="#mf7b71136db" x="144.941446" y="290.549447" style="fill: #d66b6a; stroke: #d66b6a"/>
     <use xlink:href="#mf7b71136db" x="159.666288" y="257.324024" style="fill: #d66b6a; stroke: #d66b6a"/>
     <use xlink:href="#mf7b71136db" x="174.39113" y="258.699775" style="fill: #d66b6a; stroke: #d66b6a"/>
     <use xlink:href="#mf7b71136db" x="189.115972" y="281.88151" style="fill: #d66b6a; stroke: #d66b6a"/>
     <use xlink:href="#mf7b71136db" x="203.840814" y="290.675441" style="fill: #d66b6a; stroke: #d66b6a"/>
     <use xlink:href="#mf7b71136db" x="218.565655" y="290.379215" style="fill: #d66b6a; stroke: #d66b6a"/>
     <use xlink:href="#mf7b71136db" x="233.290497" y="202.169641" style="fill: #d66b6a; stroke: #d66b6a"/>
     <use xlink:href="#mf7b71136db" x="248.015339" y="126.248602" style="fill: #d66b6a; stroke: #d66b6a"/>
     <use xlink:href="#mf7b71136db" x="262.740181" y="165.792323" style="fill: #d66b6a; stroke: #d66b6a"/>
     <use xlink:href="#mf7b71136db" x="277.465023" y="120.259085" style="fill: #d66b6a; stroke: #d66b6a"/>
     <use xlink:href="#mf7b71136db" x="292.189865" y="117.552496" style="fill: #d66b6a; stroke: #d66b6a"/>
     <use xlink:href="#mf7b71136db" x="306.914707" y="172.881941" style="fill: #d66b6a; stroke: #d66b6a"/>
     <use xlink:href="#mf7b71136db" x="321.639549" y="121.270818" style="fill: #d66b6a; stroke: #d66b6a"/>
     <use xlink:href="#mf7b71136db" x="336.36439" y="108.852866" style="fill: #d66b6a; stroke: #d66b6a"/>
     <use xlink:href="#mf7b71136db" x="351.089232" y="116.903148" style="fill: #d66b6a; stroke: #d66b6a"/>
     <use xlink:href="#mf7b71136db" x="365.814074" y="120.888244" style="fill: #d66b6a; stroke: #d66b6a"/>
     <use xlink:href="#mf7b71136db" x="380.538916" y="107.880847" style="fill: #d66b6a; stroke: #d66b6a"/>
    </g>
   </g>
   <g id="line2d_24">
    <path d="M 71.317237 335.96136 
L 86.042079 324.194047 
L 100.76692 312.426735 
L 115.491762 300.659423 
L 130.216604 288.89211 
L 144.941446 277.124798 
L 159.666288 265.357486 
L 174.39113 253.590173 
L 189.115972 241.822861 
L 203.840814 230.055549 
L 218.565655 218.288236 
L 233.290497 206.520924 
L 248.015339 194.753612 
L 262.740181 182.986299 
L 277.465023 171.218987 
L 292.189865 159.451675 
L 306.914707 147.684362 
L 321.639549 135.91705 
L 336.36439 124.149738 
L 351.089232 112.382425 
L 365.814074 100.615113 
L 380.538916 88.847801 
" clip-path="url(#p453d937e45)" style="fill: none; stroke: #000000; stroke-linecap: square"/>
   </g>
   <g id="patch_3">
    <path d="M 55.856153 350.94027 
L 55.856153 21.404246 
" style="fill: none; stroke: #000000; stroke-width: 0.8; stroke-linejoin: miter; stroke-linecap: square"/>
   </g>
   <g id="patch_4">
    <path d="M 396 350.94027 
L 396 21.404246 
" style="fill: none; stroke: #000000; stroke-width: 0.8; stroke-linejoin: miter; stroke-linecap: square"/>
   </g>
   <g id="patch_5">
    <path d="M 55.856153 350.94027 
L 396 350.94027 
" style="fill: none; stroke: #000000; stroke-width: 0.8; stroke-linejoin: miter; stroke-linecap: square"/>
   </g>
   <g id="patch_6">
    <path d="M 55.856153 21.404246 
L 396 21.404246 
" style="fill: none; stroke: #000000; stroke-width: 0.8; stroke-linejoin: miter; stroke-linecap: square"/>
   </g>
   <g id="text_15">
    <!-- $R^2$ = 0.8378 -->
    <g transform="translate(287.153969 334.463469) scale(0.2 -0.2)">
     <defs>
      <path id="CMMI12-52" d="M 2355 3917 
C 2413 4153 2438 4166 2688 4166 
L 3149 4166 
C 3699 4166 4109 4000 4109 3503 
C 4109 3177 3942 2240 2656 2240 
L 1933 2240 
L 2355 3917 
z
M 3245 2163 
C 4038 2335 4659 2846 4659 3394 
C 4659 3892 4154 4352 3264 4352 
L 1530 4352 
C 1402 4352 1344 4352 1344 4230 
C 1344 4166 1389 4166 1510 4166 
C 1894 4166 1894 4115 1894 4045 
C 1894 4032 1894 3994 1869 3898 
L 1005 475 
C 947 253 934 190 493 190 
C 346 190 301 190 301 69 
C 301 6 371 6 390 6 
C 506 6 640 19 762 19 
L 1517 19 
C 1632 19 1766 6 1882 6 
C 1933 6 2003 6 2003 126 
C 2003 190 1946 190 1850 190 
C 1459 190 1459 241 1459 304 
C 1459 310 1459 355 1472 405 
L 1901 2112 
L 2669 2112 
C 3277 2112 3392 1731 3392 1522 
C 3392 1426 3328 1179 3283 1014 
C 3213 723 3194 653 3194 532 
C 3194 82 3565 -128 3994 -128 
C 4512 -128 4736 501 4736 589 
C 4736 634 4704 653 4666 653 
C 4614 653 4602 615 4589 564 
C 4435 114 4173 0 4013 0 
C 3853 0 3750 69 3750 355 
C 3750 507 3827 1084 3834 1116 
C 3866 1350 3866 1376 3866 1426 
C 3866 1889 3488 2086 3245 2163 
z
" transform="scale(0.015625)"/>
      <path id="CMR17-3d" d="M 4115 2048 
C 4211 2048 4307 2048 4307 2156 
C 4307 2272 4198 2272 4090 2272 
L 512 2272 
C 403 2272 294 2272 294 2156 
C 294 2048 390 2048 486 2048 
L 4115 2048 
z
M 4090 927 
C 4198 927 4307 927 4307 1043 
C 4307 1152 4211 1152 4115 1152 
L 486 1152 
C 390 1152 294 1152 294 1043 
C 294 927 403 927 512 927 
L 4090 927 
z
" transform="scale(0.015625)"/>
      <path id="CMR17-2e" d="M 1062 262 
C 1062 422 934 524 800 524 
C 672 524 538 422 538 262 
C 538 102 666 0 800 0 
C 928 0 1062 102 1062 262 
z
" transform="scale(0.015625)"/>
      <path id="CMR17-38" d="M 1741 2289 
C 2144 2494 2554 2803 2554 3298 
C 2554 3884 1990 4224 1472 4224 
C 890 4224 378 3800 378 3215 
C 378 3054 416 2777 666 2533 
C 730 2469 998 2276 1171 2154 
C 883 2006 211 1652 211 945 
C 211 282 838 -128 1459 -128 
C 2144 -128 2720 366 2720 1022 
C 2720 1607 2330 1877 2074 2051 
L 1741 2289 
z
M 902 2855 
C 851 2887 595 3086 595 3388 
C 595 3781 998 4076 1459 4076 
C 1965 4076 2336 3716 2336 3298 
C 2336 2700 1670 2359 1638 2359 
C 1632 2359 1626 2359 1574 2398 
L 902 2855 
z
M 2080 1536 
C 2176 1466 2483 1253 2483 861 
C 2483 385 2010 25 1472 25 
C 890 25 448 443 448 951 
C 448 1459 838 1884 1280 2083 
L 2080 1536 
z
" transform="scale(0.015625)"/>
      <path id="CMR17-37" d="M 2886 3955 
L 2886 4096 
L 1382 4096 
C 634 4096 621 4166 595 4288 
L 480 4288 
L 294 3104 
L 410 3104 
C 429 3226 474 3552 550 3673 
C 589 3724 1062 3724 1171 3724 
L 2579 3724 
L 1869 2670 
C 1395 1961 1069 1003 1069 166 
C 1069 89 1069 -128 1299 -128 
C 1530 -128 1530 89 1530 172 
L 1530 466 
C 1530 1514 1709 2204 2003 2644 
L 2886 3955 
z
" transform="scale(0.015625)"/>
     </defs>
     <use xlink:href="#CMMI12-52" transform="scale(0.996264)"/>
     <use xlink:href="#CMR17-32" transform="translate(75.070962 36.153639) scale(0.697382)"/>
     <use xlink:href="#CMR17-3d" transform="translate(137.628242 0) scale(0.996264)"/>
     <use xlink:href="#CMR17-30" transform="translate(239.418997 0) scale(0.996264)"/>
     <use xlink:href="#CMR17-2e" transform="translate(285.109474 0) scale(0.996264)"/>
     <use xlink:href="#CMR17-38" transform="translate(309.980533 0) scale(0.996264)"/>
     <use xlink:href="#CMR17-33" transform="translate(355.67101 0) scale(0.996264)"/>
     <use xlink:href="#CMR17-37" transform="translate(401.361487 0) scale(0.996264)"/>
     <use xlink:href="#CMR17-38" transform="translate(447.051964 0) scale(0.996264)"/>
    </g>
   </g>
   <g id="legend_1">
    <g id="patch_7">
     <path d="M 67.056153 101.102674 
L 354.02242 101.102674 
Q 357.22242 101.102674 357.22242 97.902674 
L 357.22242 32.604246 
Q 357.22242 29.404246 354.02242 29.404246 
L 67.056153 29.404246 
Q 63.856153 29.404246 63.856153 32.604246 
L 63.856153 97.902674 
Q 63.856153 101.102674 67.056153 101.102674 
z
" style="fill: #ffffff; opacity: 0.8; stroke: #cccccc; stroke-linejoin: miter"/>
    </g>
    <g id="patch_8">
     <path d="M 70.256153 47.004246 
L 102.256153 47.004246 
L 102.256153 35.804246 
L 70.256153 35.804246 
z
" style="fill: #d66b6a; fill-opacity: 0.2; stroke: #d66b6a; stroke-opacity: 0.2; stroke-linejoin: miter"/>
    </g>
    <g id="text_16">
     <!-- Carré de l'IQ -->
     <g transform="translate(115.056153 47.004246) scale(0.16 -0.16)">
      <defs>
       <path id="CMR17-49" d="M 1261 3898 
C 1261 4185 1338 4185 1798 4185 
L 1798 4352 
C 1594 4339 1267 4339 1050 4339 
C 832 4339 506 4339 301 4352 
L 301 4185 
C 762 4185 838 4185 838 3898 
L 838 453 
C 838 166 762 166 301 166 
L 301 0 
C 506 12 832 12 1050 12 
C 1267 12 1594 12 1798 0 
L 1798 166 
C 1338 166 1261 166 1261 453 
L 1261 3898 
z
" transform="scale(0.015625)"/>
       <path id="CMR17-51" d="M 3027 31 
C 3789 355 4307 1187 4307 2157 
C 4307 3484 3366 4480 2304 4480 
C 1216 4480 294 3471 294 2157 
C 294 863 1216 -128 2304 -128 
C 2451 -128 2656 -109 2899 -26 
C 3008 -813 3078 -1280 3629 -1280 
C 4307 -1280 4339 -277 4339 -96 
C 4339 -32 4339 12 4294 12 
C 4262 12 4256 -32 4256 -45 
C 4211 -665 3866 -794 3661 -794 
C 3283 -794 3149 -452 3027 31 
z
M 1958 38 
C 1293 247 768 954 768 2157 
C 768 3698 1606 4364 2298 4364 
C 3014 4364 3834 3672 3834 2157 
C 3834 1064 3405 463 2976 190 
C 2880 514 2726 896 2310 896 
C 2003 896 1830 628 1830 387 
C 1830 241 1888 120 1958 38 
z
M 2874 133 
C 2618 -1 2413 -13 2304 -13 
C 2016 -13 1933 247 1933 387 
C 1933 584 2067 793 2310 793 
C 2720 793 2822 431 2874 133 
z
" transform="scale(0.015625)"/>
      </defs>
      <use xlink:href="#CMR17-43" transform="scale(0.996264)"/>
      <use xlink:href="#CMR17-61" transform="translate(66.509881 0) scale(0.996264)"/>
      <use xlink:href="#CMR17-72" transform="translate(112.200358 0) scale(0.996264)"/>
      <use xlink:href="#CMR17-72" transform="translate(147.481125 0) scale(0.996264)"/>
      <use xlink:href="#CMR17-13" transform="translate(180.159485 0) scale(0.996264)"/>
      <use xlink:href="#CMR17-65" transform="translate(182.761893 0) scale(0.996264)"/>
      <use xlink:href="#CMR17-64" transform="translate(253.32352 0) scale(0.996264)"/>
      <use xlink:href="#CMR17-65" transform="translate(304.21889 0) scale(0.996264)"/>
      <use xlink:href="#CMR17-6c" transform="translate(374.780517 0) scale(0.996264)"/>
      <use xlink:href="#CMR17-27" transform="translate(399.651575 0) scale(0.996264)"/>
      <use xlink:href="#CMR17-49" transform="translate(424.522634 0) scale(0.996264)"/>
      <use xlink:href="#CMR17-51" transform="translate(457.161043 0) scale(0.996264)"/>
     </g>
    </g>
    <g id="line2d_25">
     <path d="M 70.256153 63.703722 
L 86.256153 63.703722 
L 102.256153 63.703722 
" style="fill: none; stroke: #d66b6a; stroke-width: 2; stroke-linecap: square"/>
     <g>
      <use xlink:href="#mf7b71136db" x="86.256153" y="63.703722" style="fill: #d66b6a; stroke: #d66b6a"/>
     </g>
    </g>
    <g id="text_17">
     <!-- Carré de la moyenne IQ -->
     <g transform="translate(115.056153 69.303722) scale(0.16 -0.16)">
      <defs>
       <path id="CMR17-79" d="M 2496 2183 
C 2656 2579 2944 2585 3034 2585 
L 3034 2752 
C 2912 2745 2752 2739 2630 2739 
C 2496 2739 2285 2739 2157 2752 
L 2157 2585 
C 2400 2566 2406 2384 2406 2332 
C 2406 2268 2394 2235 2362 2158 
L 1664 409 
L 902 2300 
C 870 2378 870 2423 870 2430 
C 870 2572 1018 2585 1171 2585 
L 1171 2752 
C 1018 2739 742 2739 582 2739 
C 410 2739 205 2739 64 2752 
L 64 2585 
C 410 2585 448 2553 531 2345 
L 1485 -31 
C 1197 -795 1030 -1242 627 -1242 
C 557 -1242 397 -1223 282 -1106 
C 429 -1093 493 -1002 493 -892 
C 493 -782 416 -685 288 -685 
C 147 -685 77 -782 77 -899 
C 77 -1158 339 -1344 627 -1344 
C 998 -1344 1229 -983 1357 -659 
L 2496 2183 
z
" transform="scale(0.015625)"/>
      </defs>
      <use xlink:href="#CMR17-43" transform="scale(0.996264)"/>
      <use xlink:href="#CMR17-61" transform="translate(66.509881 0) scale(0.996264)"/>
      <use xlink:href="#CMR17-72" transform="translate(112.200358 0) scale(0.996264)"/>
      <use xlink:href="#CMR17-72" transform="translate(147.481125 0) scale(0.996264)"/>
      <use xlink:href="#CMR17-13" transform="translate(180.159485 0) scale(0.996264)"/>
      <use xlink:href="#CMR17-65" transform="translate(182.761893 0) scale(0.996264)"/>
      <use xlink:href="#CMR17-64" transform="translate(253.32352 0) scale(0.996264)"/>
      <use xlink:href="#CMR17-65" transform="translate(304.21889 0) scale(0.996264)"/>
      <use xlink:href="#CMR17-6c" transform="translate(374.780517 0) scale(0.996264)"/>
      <use xlink:href="#CMR17-61" transform="translate(399.651575 0) scale(0.996264)"/>
      <use xlink:href="#CMR17-6d" transform="translate(475.418019 0) scale(0.996264)"/>
      <use xlink:href="#CMR17-6f" transform="translate(552.337608 0) scale(0.996264)"/>
      <use xlink:href="#CMR17-79" transform="translate(595.425632 0) scale(0.996264)"/>
      <use xlink:href="#CMR17-65" transform="translate(641.116094 0) scale(0.996264)"/>
      <use xlink:href="#CMR17-6e" transform="translate(681.601754 0) scale(0.996264)"/>
      <use xlink:href="#CMR17-6e" transform="translate(732.497124 0) scale(0.996264)"/>
      <use xlink:href="#CMR17-65" transform="translate(783.392494 0) scale(0.996264)"/>
      <use xlink:href="#CMR17-49" transform="translate(853.95412 0) scale(0.996264)"/>
      <use xlink:href="#CMR17-51" transform="translate(886.59253 0) scale(0.996264)"/>
     </g>
    </g>
    <g id="line2d_26">
     <path d="M 70.256153 86.003198 
L 86.256153 86.003198 
L 102.256153 86.003198 
" style="fill: none; stroke: #000000; stroke-linecap: square"/>
    </g>
    <g id="text_18">
     <!-- Courbe linéaire : $0.0000x + 0.0000$ -->
     <g transform="translate(115.056153 91.603198) scale(0.16 -0.16)">
      <defs>
       <path id="CMR17-3a" d="M 1062 2489 
C 1062 2649 934 2752 800 2752 
C 672 2752 538 2649 538 2489 
C 538 2329 666 2227 800 2227 
C 928 2227 1062 2329 1062 2489 
z
M 1062 262 
C 1062 422 934 524 800 524 
C 672 524 538 422 538 262 
C 538 102 666 0 800 0 
C 928 0 1062 102 1062 262 
z
" transform="scale(0.015625)"/>
       <path id="CMMI12-78" d="M 3034 2624 
C 2829 2585 2752 2431 2752 2310 
C 2752 2156 2874 2105 2963 2105 
C 3155 2105 3290 2271 3290 2444 
C 3290 2694 2982 2816 2714 2816 
C 2323 2816 2106 2451 2048 2329 
C 1901 2790 1504 2816 1389 2816 
C 736 2816 390 1993 390 1849 
C 390 1823 416 1790 461 1790 
C 512 1790 525 1829 538 1855 
C 755 2572 1184 2687 1370 2687 
C 1658 2687 1715 2438 1715 2284 
C 1715 2143 1677 1993 1600 1678 
L 1382 778 
C 1286 390 1101 64 762 64 
C 730 64 570 64 435 126 
C 666 166 717 358 717 435 
C 717 563 621 640 499 640 
C 346 640 179 505 179 300 
C 179 57 480 -64 755 -64 
C 1062 -64 1280 153 1414 415 
C 1517 64 1837 -64 2074 -64 
C 2726 -64 3072 751 3072 896 
C 3072 929 3046 955 3008 955 
C 2950 955 2944 922 2925 870 
C 2752 300 2381 64 2093 64 
C 1869 64 1747 204 1747 467 
C 1747 607 1773 712 1875 1146 
L 2099 2039 
C 2195 2425 2413 2687 2707 2687 
C 2720 2687 2899 2687 3034 2624 
z
" transform="scale(0.015625)"/>
       <path id="CMR17-2b" d="M 2413 1472 
L 4109 1472 
C 4198 1472 4307 1472 4307 1580 
C 4307 1696 4205 1696 4109 1696 
L 2413 1696 
L 2413 3385 
C 2413 3475 2413 3584 2304 3584 
C 2189 3584 2189 3481 2189 3385 
L 2189 1696 
L 493 1696 
C 403 1696 294 1696 294 1587 
C 294 1472 397 1472 493 1472 
L 2189 1472 
L 2189 -194 
C 2189 -282 2189 -391 2298 -391 
C 2413 -391 2413 -289 2413 -194 
L 2413 1472 
z
" transform="scale(0.015625)"/>
      </defs>
      <use xlink:href="#CMR17-43" transform="scale(0.996264)"/>
      <use xlink:href="#CMR17-6f" transform="translate(66.509881 0) scale(0.996264)"/>
      <use xlink:href="#CMR17-75" transform="translate(112.200358 0) scale(0.996264)"/>
      <use xlink:href="#CMR17-72" transform="translate(163.095727 0) scale(0.996264)"/>
      <use xlink:href="#CMR17-62" transform="translate(198.376495 0) scale(0.996264)"/>
      <use xlink:href="#CMR17-65" transform="translate(251.874304 0) scale(0.996264)"/>
      <use xlink:href="#CMR17-6c" transform="translate(322.435931 0) scale(0.996264)"/>
      <use xlink:href="#CMR17-69" transform="translate(347.306989 0) scale(0.996264)"/>
      <use xlink:href="#CMR17-6e" transform="translate(372.178048 0) scale(0.996264)"/>
      <use xlink:href="#CMR17-13" transform="translate(420.471009 0) scale(0.996264)"/>
      <use xlink:href="#CMR17-65" transform="translate(423.073417 0) scale(0.996264)"/>
      <use xlink:href="#CMR17-61" transform="translate(463.559078 0) scale(0.996264)"/>
      <use xlink:href="#CMR17-69" transform="translate(509.249555 0) scale(0.996264)"/>
      <use xlink:href="#CMR17-72" transform="translate(534.120613 0) scale(0.996264)"/>
      <use xlink:href="#CMR17-65" transform="translate(569.401381 0) scale(0.996264)"/>
      <use xlink:href="#CMR17-3a" transform="translate(639.963008 0) scale(0.996264)"/>
      <use xlink:href="#CMR17-30" transform="translate(705.319727 0) scale(0.996264)"/>
      <use xlink:href="#CMMI12-3a" transform="translate(751.010204 0) scale(0.996264)"/>
      <use xlink:href="#CMR17-30" transform="translate(778.107381 0) scale(0.996264)"/>
      <use xlink:href="#CMR17-30" transform="translate(823.797858 0) scale(0.996264)"/>
      <use xlink:href="#CMR17-30" transform="translate(869.488335 0) scale(0.996264)"/>
      <use xlink:href="#CMR17-30" transform="translate(915.178812 0) scale(0.996264)"/>
      <use xlink:href="#CMMI12-78" transform="translate(960.86929 0) scale(0.996264)"/>
      <use xlink:href="#CMR17-2b" transform="translate(1038.442556 0) scale(0.996264)"/>
      <use xlink:href="#CMR17-30" transform="translate(1132.296552 0) scale(0.996264)"/>
      <use xlink:href="#CMMI12-3a" transform="translate(1177.987029 0) scale(0.996264)"/>
      <use xlink:href="#CMR17-30" transform="translate(1205.084206 0) scale(0.996264)"/>
      <use xlink:href="#CMR17-30" transform="translate(1250.774683 0) scale(0.996264)"/>
      <use xlink:href="#CMR17-30" transform="translate(1296.46516 0) scale(0.996264)"/>
      <use xlink:href="#CMR17-30" transform="translate(1342.155637 0) scale(0.996264)"/>
     </g>
    </g>
   </g>
  </g>
 </g>
 <defs>
  <clipPath id="p453d937e45">
   <rect x="55.856153" y="21.404246" width="340.143847" height="329.536024"/>
  </clipPath>
 </defs>
</svg>
