<?xml version="1.0" encoding="utf-8" standalone="no"?>
<!DOCTYPE svg PUBLIC "-//W3C//DTD SVG 1.1//EN"
  "http://www.w3.org/Graphics/SVG/1.1/DTD/svg11.dtd">
<svg xmlns:xlink="http://www.w3.org/1999/xlink" width="403.2pt" height="403.2pt" viewBox="0 0 403.2 403.2" xmlns="http://www.w3.org/2000/svg" version="1.1">
 <metadata>
  <rdf:RDF xmlns:dc="http://purl.org/dc/elements/1.1/" xmlns:cc="http://creativecommons.org/ns#" xmlns:rdf="http://www.w3.org/1999/02/22-rdf-syntax-ns#">
   <cc:Work>
    <dc:type rdf:resource="http://purl.org/dc/dcmitype/StillImage"/>
    <dc:date>1980-01-01T00:00:00+00:00</dc:date>
    <dc:format>image/svg+xml</dc:format>
    <dc:creator>
     <cc:Agent>
      <dc:title>Matplotlib v3.10.0, https://matplotlib.org/</dc:title>
     </cc:Agent>
    </dc:creator>
   </cc:Work>
  </rdf:RDF>
 </metadata>
 <defs>
  <style type="text/css">*{stroke-linejoin: round; stroke-linecap: butt}</style>
 </defs>
 <g id="figure_1">
  <g id="patch_1">
   <path d="M 0 403.2 
L 403.2 403.2 
L 403.2 0 
L 0 0 
z
" style="fill: #ffffff"/>
  </g>
  <g id="axes_1">
   <g id="patch_2">
    <path d="M 77.496848 352.929332 
L 396 352.929332 
L 396 7.2 
L 77.496848 7.2 
z
" style="fill: #ffffff"/>
   </g>
   <g id="FillBetweenPolyCollection_1">
    <defs>
     <path id="m75a38fc81b" d="M 91.974264 -65.985638 
L 91.974264 -65.985638 
L 105.762279 -65.985638 
L 119.550294 -65.985638 
L 133.338309 -65.985638 
L 147.126325 -65.985638 
L 160.91434 -65.985638 
L 174.702355 -65.985638 
L 188.49037 -65.985638 
L 202.278386 -65.985638 
L 216.066401 -65.985638 
L 229.854416 -223.135334 
L 243.642431 -65.985638 
L 257.430447 -65.985638 
L 271.218462 -223.135334 
L 285.006477 -223.135334 
L 298.794492 -380.28503 
L 312.582508 -380.28503 
L 326.370523 -380.28503 
L 340.158538 -223.135334 
L 353.946553 -223.135334 
L 367.734569 -380.28503 
L 381.522584 -380.28503 
L 381.522584 -380.28503 
L 381.522584 -380.28503 
L 367.734569 -380.28503 
L 353.946553 -380.28503 
L 340.158538 -380.28503 
L 326.370523 -380.28503 
L 312.582508 -380.28503 
L 298.794492 -380.28503 
L 285.006477 -380.28503 
L 271.218462 -380.28503 
L 257.430447 -380.28503 
L 243.642431 -380.28503 
L 229.854416 -380.28503 
L 216.066401 -380.28503 
L 202.278386 -380.28503 
L 188.49037 -380.28503 
L 174.702355 -380.28503 
L 160.91434 -223.135334 
L 147.126325 -65.985638 
L 133.338309 -380.28503 
L 119.550294 -223.135334 
L 105.762279 -65.985638 
L 91.974264 -65.985638 
z
" style="stroke: #3498db; stroke-opacity: 0.2"/>
    </defs>
    <g clip-path="url(#p575352465b)">
     <use xlink:href="#m75a38fc81b" x="0" y="403.2" style="fill: #3498db; fill-opacity: 0.2; stroke: #3498db; stroke-opacity: 0.2"/>
    </g>
   </g>
   <g id="FillBetweenPolyCollection_2">
    <defs>
     <path id="m2aaa3fe7e8" d="M 91.974264 -65.985638 
L 91.974264 -65.985638 
L 105.762279 -65.985638 
L 119.550294 -65.985638 
L 133.338309 -65.985638 
L 147.126325 -65.985638 
L 160.91434 -65.985638 
L 174.702355 -65.985638 
L 188.49037 -65.985638 
L 202.278386 -65.985638 
L 216.066401 -65.985638 
L 229.854416 -65.985638 
L 243.642431 -65.985638 
L 257.430447 -65.985638 
L 271.218462 -65.985638 
L 285.006477 -65.985638 
L 298.794492 -65.985638 
L 312.582508 -65.985638 
L 326.370523 -65.985638 
L 340.158538 -65.985638 
L 353.946553 -65.985638 
L 367.734569 -65.985638 
L 381.522584 -65.985638 
L 381.522584 -65.985638 
L 381.522584 -65.985638 
L 367.734569 -65.985638 
L 353.946553 -65.985638 
L 340.158538 -65.985638 
L 326.370523 -65.985638 
L 312.582508 -65.985638 
L 298.794492 -65.985638 
L 285.006477 -65.985638 
L 271.218462 -65.985638 
L 257.430447 -65.985638 
L 243.642431 -65.985638 
L 229.854416 -65.985638 
L 216.066401 -65.985638 
L 202.278386 -65.985638 
L 188.49037 -65.985638 
L 174.702355 -65.985638 
L 160.91434 -65.985638 
L 147.126325 -65.985638 
L 133.338309 -65.985638 
L 119.550294 -65.985638 
L 105.762279 -65.985638 
L 91.974264 -65.985638 
z
" style="stroke: #d66b6a; stroke-opacity: 0.2"/>
    </defs>
    <g clip-path="url(#p575352465b)">
     <use xlink:href="#m2aaa3fe7e8" x="0" y="403.2" style="fill: #d66b6a; fill-opacity: 0.2; stroke: #d66b6a; stroke-opacity: 0.2"/>
    </g>
   </g>
   <g id="matplotlib.axis_1">
    <g id="xtick_1">
     <g id="line2d_1">
      <path d="M 91.974264 352.929332 
L 91.974264 7.2 
" clip-path="url(#p575352465b)" style="fill: none; stroke: #b0b0b0; stroke-opacity: 0.3; stroke-width: 0.8; stroke-linecap: square"/>
     </g>
     <g id="line2d_2">
      <defs>
       <path id="m488980d86a" d="M 0 0 
L 0 3.5 
" style="stroke: #000000; stroke-width: 0.8"/>
      </defs>
      <g>
       <use xlink:href="#m488980d86a" x="91.974264" y="352.929332" style="stroke: #000000; stroke-width: 0.8"/>
      </g>
     </g>
     <g id="text_1">
      <!-- $\mathdefault{0}$ -->
      <g transform="translate(88.07227 370.99892) scale(0.16 -0.16)">
       <defs>
        <path id="CMR17-30" d="M 2688 2038 
C 2688 2430 2682 3099 2413 3613 
C 2176 4063 1798 4224 1466 4224 
C 1158 4224 768 4082 525 3620 
C 269 3137 243 2539 243 2038 
C 243 1671 250 1112 448 623 
C 723 -39 1216 -128 1466 -128 
C 1760 -128 2208 -7 2470 604 
C 2662 1048 2688 1568 2688 2038 
z
M 1466 -26 
C 1056 -26 813 328 723 816 
C 653 1196 653 1749 653 2109 
C 653 2604 653 3015 736 3407 
C 858 3954 1216 4121 1466 4121 
C 1728 4121 2067 3947 2189 3420 
C 2272 3054 2278 2623 2278 2109 
C 2278 1691 2278 1176 2202 797 
C 2067 96 1690 -26 1466 -26 
z
" transform="scale(0.015625)"/>
       </defs>
       <use xlink:href="#CMR17-30" transform="scale(0.996264)"/>
      </g>
     </g>
    </g>
    <g id="xtick_2">
     <g id="line2d_3">
      <path d="M 149.424327 352.929332 
L 149.424327 7.2 
" clip-path="url(#p575352465b)" style="fill: none; stroke: #b0b0b0; stroke-opacity: 0.3; stroke-width: 0.8; stroke-linecap: square"/>
     </g>
     <g id="line2d_4">
      <g>
       <use xlink:href="#m488980d86a" x="149.424327" y="352.929332" style="stroke: #000000; stroke-width: 0.8"/>
      </g>
     </g>
     <g id="text_2">
      <!-- $\mathdefault{50}$ -->
      <g transform="translate(141.62034 370.99892) scale(0.16 -0.16)">
       <defs>
        <path id="CMR17-35" d="M 730 3750 
C 794 3724 1056 3641 1325 3641 
C 1920 3641 2246 3961 2432 4140 
C 2432 4191 2432 4224 2394 4224 
C 2387 4224 2374 4224 2323 4198 
C 2099 4102 1837 4032 1517 4032 
C 1325 4032 1037 4055 723 4191 
C 653 4224 640 4224 634 4224 
C 602 4224 595 4217 595 4090 
L 595 2231 
C 595 2113 595 2080 659 2080 
C 691 2080 704 2093 736 2139 
C 941 2435 1222 2560 1542 2560 
C 1766 2560 2246 2415 2246 1293 
C 2246 1087 2246 716 2054 422 
C 1894 159 1645 25 1370 25 
C 947 25 518 319 403 812 
C 429 806 480 793 506 793 
C 589 793 749 838 749 1036 
C 749 1209 627 1280 506 1280 
C 358 1280 262 1190 262 1011 
C 262 454 704 -128 1382 -128 
C 2042 -128 2669 441 2669 1267 
C 2669 2054 2170 2662 1549 2662 
C 1222 2662 947 2540 730 2304 
L 730 3750 
z
" transform="scale(0.015625)"/>
       </defs>
       <use xlink:href="#CMR17-35" transform="scale(0.996264)"/>
       <use xlink:href="#CMR17-30" transform="translate(45.690477 0) scale(0.996264)"/>
      </g>
     </g>
    </g>
    <g id="xtick_3">
     <g id="line2d_5">
      <path d="M 206.874391 352.929332 
L 206.874391 7.2 
" clip-path="url(#p575352465b)" style="fill: none; stroke: #b0b0b0; stroke-opacity: 0.3; stroke-width: 0.8; stroke-linecap: square"/>
     </g>
     <g id="line2d_6">
      <g>
       <use xlink:href="#m488980d86a" x="206.874391" y="352.929332" style="stroke: #000000; stroke-width: 0.8"/>
      </g>
     </g>
     <g id="text_3">
      <!-- $\mathdefault{100}$ -->
      <g transform="translate(195.16841 370.99892) scale(0.16 -0.16)">
       <defs>
        <path id="CMR17-31" d="M 1702 4083 
C 1702 4217 1696 4224 1606 4224 
C 1357 3927 979 3833 621 3820 
C 602 3820 570 3820 563 3808 
C 557 3795 557 3782 557 3648 
C 755 3648 1088 3686 1344 3839 
L 1344 467 
C 1344 243 1331 166 781 166 
L 589 166 
L 589 0 
C 896 6 1216 12 1523 12 
C 1830 12 2150 6 2458 0 
L 2458 166 
L 2266 166 
C 1715 166 1702 236 1702 467 
L 1702 4083 
z
" transform="scale(0.015625)"/>
       </defs>
       <use xlink:href="#CMR17-31" transform="scale(0.996264)"/>
       <use xlink:href="#CMR17-30" transform="translate(45.690477 0) scale(0.996264)"/>
       <use xlink:href="#CMR17-30" transform="translate(91.380954 0) scale(0.996264)"/>
      </g>
     </g>
    </g>
    <g id="xtick_4">
     <g id="line2d_7">
      <path d="M 264.324454 352.929332 
L 264.324454 7.2 
" clip-path="url(#p575352465b)" style="fill: none; stroke: #b0b0b0; stroke-opacity: 0.3; stroke-width: 0.8; stroke-linecap: square"/>
     </g>
     <g id="line2d_8">
      <g>
       <use xlink:href="#m488980d86a" x="264.324454" y="352.929332" style="stroke: #000000; stroke-width: 0.8"/>
      </g>
     </g>
     <g id="text_4">
      <!-- $\mathdefault{150}$ -->
      <g transform="translate(252.618474 370.99892) scale(0.16 -0.16)">
       <use xlink:href="#CMR17-31" transform="scale(0.996264)"/>
       <use xlink:href="#CMR17-35" transform="translate(45.690477 0) scale(0.996264)"/>
       <use xlink:href="#CMR17-30" transform="translate(91.380954 0) scale(0.996264)"/>
      </g>
     </g>
    </g>
    <g id="xtick_5">
     <g id="line2d_9">
      <path d="M 321.774518 352.929332 
L 321.774518 7.2 
" clip-path="url(#p575352465b)" style="fill: none; stroke: #b0b0b0; stroke-opacity: 0.3; stroke-width: 0.8; stroke-linecap: square"/>
     </g>
     <g id="line2d_10">
      <g>
       <use xlink:href="#m488980d86a" x="321.774518" y="352.929332" style="stroke: #000000; stroke-width: 0.8"/>
      </g>
     </g>
     <g id="text_5">
      <!-- $\mathdefault{200}$ -->
      <g transform="translate(310.068537 370.99892) scale(0.16 -0.16)">
       <defs>
        <path id="CMR17-32" d="M 2669 990 
L 2554 990 
C 2490 537 2438 460 2413 422 
C 2381 371 1920 371 1830 371 
L 602 371 
C 832 620 1280 1073 1824 1596 
C 2214 1966 2669 2400 2669 3033 
C 2669 3788 2067 4224 1395 4224 
C 691 4224 262 3603 262 3027 
C 262 2777 448 2745 525 2745 
C 589 2745 781 2783 781 3007 
C 781 3206 614 3264 525 3264 
C 486 3264 448 3257 422 3244 
C 544 3788 915 4057 1306 4057 
C 1862 4057 2227 3616 2227 3033 
C 2227 2477 1901 1998 1536 1583 
L 262 147 
L 262 0 
L 2515 0 
L 2669 990 
z
" transform="scale(0.015625)"/>
       </defs>
       <use xlink:href="#CMR17-32" transform="scale(0.996264)"/>
       <use xlink:href="#CMR17-30" transform="translate(45.690477 0) scale(0.996264)"/>
       <use xlink:href="#CMR17-30" transform="translate(91.380954 0) scale(0.996264)"/>
      </g>
     </g>
    </g>
    <g id="xtick_6">
     <g id="line2d_11">
      <path d="M 379.224581 352.929332 
L 379.224581 7.2 
" clip-path="url(#p575352465b)" style="fill: none; stroke: #b0b0b0; stroke-opacity: 0.3; stroke-width: 0.8; stroke-linecap: square"/>
     </g>
     <g id="line2d_12">
      <g>
       <use xlink:href="#m488980d86a" x="379.224581" y="352.929332" style="stroke: #000000; stroke-width: 0.8"/>
      </g>
     </g>
     <g id="text_6">
      <!-- $\mathdefault{250}$ -->
      <g transform="translate(367.518601 370.99892) scale(0.16 -0.16)">
       <use xlink:href="#CMR17-32" transform="scale(0.996264)"/>
       <use xlink:href="#CMR17-35" transform="translate(45.690477 0) scale(0.996264)"/>
       <use xlink:href="#CMR17-30" transform="translate(91.380954 0) scale(0.996264)"/>
      </g>
     </g>
    </g>
    <g id="text_7">
     <!-- Nombre de sommet bloqué ($k$) -->
     <g transform="translate(126.327655 391.531816) scale(0.18 -0.18)">
      <defs>
       <path id="CMR17-4e" d="M 1312 4275 
C 1267 4345 1261 4352 1139 4352 
L 326 4352 
L 326 4185 
L 448 4185 
C 704 4185 819 4153 838 4147 
L 838 624 
C 838 465 838 166 326 166 
L 326 0 
C 474 12 742 12 902 12 
C 1062 12 1331 12 1478 0 
L 1478 166 
C 966 166 966 465 966 624 
L 966 4057 
C 1011 4019 1011 4007 1056 3943 
L 3430 76 
C 3475 0 3494 0 3526 0 
C 3590 0 3590 19 3590 140 
L 3590 3726 
C 3590 3885 3590 4185 4102 4185 
L 4102 4352 
C 3955 4339 3686 4339 3526 4339 
C 3366 4339 3098 4339 2950 4352 
L 2950 4185 
C 3462 4185 3462 3885 3462 3726 
L 3462 777 
L 1312 4275 
z
" transform="scale(0.015625)"/>
       <path id="CMR17-6f" d="M 2758 1356 
C 2758 2176 2163 2816 1466 2816 
C 768 2816 173 2176 173 1356 
C 173 550 768 -64 1466 -64 
C 2163 -64 2758 550 2758 1356 
z
M 1466 51 
C 1165 51 909 230 762 480 
C 602 768 582 1126 582 1408 
C 582 1676 595 2009 762 2297 
C 890 2508 1139 2713 1466 2713 
C 1754 2713 1997 2553 2150 2329 
C 2349 2028 2349 1606 2349 1408 
C 2349 1158 2336 774 2163 467 
C 1984 172 1709 51 1466 51 
z
" transform="scale(0.015625)"/>
       <path id="CMR17-6d" d="M 4326 1954 
C 4326 2276 4269 2816 3507 2816 
C 3072 2816 2771 2520 2656 2173 
L 2650 2173 
C 2573 2700 2195 2816 1837 2816 
C 1331 2816 1069 2424 973 2166 
L 966 2166 
L 966 2816 
L 211 2745 
L 211 2578 
C 589 2578 646 2540 646 2231 
L 646 443 
C 646 198 621 166 211 166 
L 211 0 
C 365 12 646 12 813 12 
C 979 12 1267 12 1421 0 
L 1421 166 
C 1011 166 986 192 986 443 
L 986 1678 
C 986 2269 1344 2713 1792 2713 
C 2266 2713 2317 2289 2317 1980 
L 2317 443 
C 2317 198 2291 166 1882 166 
L 1882 0 
C 2035 12 2317 12 2483 12 
C 2650 12 2938 12 3091 0 
L 3091 166 
C 2682 166 2656 192 2656 443 
L 2656 1678 
C 2656 2269 3014 2713 3462 2713 
C 3936 2713 3987 2289 3987 1980 
L 3987 443 
C 3987 198 3962 166 3552 166 
L 3552 0 
C 3706 12 3987 12 4154 12 
C 4320 12 4608 12 4762 0 
L 4762 166 
C 4352 166 4326 192 4326 443 
L 4326 1954 
z
" transform="scale(0.015625)"/>
       <path id="CMR17-62" d="M 960 4416 
L 198 4345 
L 198 4179 
C 576 4179 634 4141 634 3843 
L 634 -13 
L 749 -13 
L 934 445 
C 1120 141 1395 -64 1766 -64 
C 2406 -64 3053 503 3053 1382 
C 3053 2209 2477 2816 1830 2816 
C 1434 2816 1152 2603 960 2351 
L 960 4416 
z
M 973 2022 
C 973 2138 973 2157 1062 2293 
C 1312 2681 1670 2713 1792 2713 
C 1984 2713 2643 2610 2643 1388 
C 2643 109 1888 38 1734 38 
C 1536 38 1248 115 1043 490 
C 973 613 973 626 973 742 
L 973 2022 
z
" transform="scale(0.015625)"/>
       <path id="CMR17-72" d="M 960 1517 
C 960 2134 1222 2713 1702 2713 
C 1747 2713 1792 2707 1837 2687 
C 1837 2687 1696 2642 1696 2475 
C 1696 2321 1818 2257 1914 2257 
C 1990 2257 2131 2302 2131 2482 
C 2131 2687 1926 2816 1709 2816 
C 1222 2816 1011 2340 947 2115 
L 941 2115 
L 941 2816 
L 198 2745 
L 198 2578 
C 576 2578 634 2540 634 2231 
L 634 443 
C 634 198 608 166 198 166 
L 198 0 
C 352 12 646 12 813 12 
C 998 12 1325 12 1498 0 
L 1498 166 
C 1037 166 960 166 960 455 
L 960 1517 
z
" transform="scale(0.015625)"/>
       <path id="CMR17-65" d="M 2438 1503 
C 2464 1529 2464 1542 2464 1606 
C 2464 2251 2118 2816 1389 2816 
C 710 2816 173 2175 173 1394 
C 173 554 781 -64 1459 -64 
C 2176 -64 2458 619 2458 755 
C 2458 800 2419 800 2406 800 
C 2362 800 2355 787 2330 709 
C 2189 270 1837 51 1504 51 
C 1229 51 954 206 781 490 
C 582 819 582 1200 582 1503 
L 2438 1503 
z
M 589 1600 
C 634 2511 1126 2713 1382 2713 
C 1818 2713 2112 2308 2118 1600 
L 589 1600 
z
" transform="scale(0.015625)"/>
       <path id="CMR17-64" d="M 1869 4345 
L 1869 4179 
C 2246 4179 2304 4141 2304 3843 
L 2304 2371 
C 2278 2403 2016 2816 1498 2816 
C 845 2816 211 2228 211 1376 
C 211 529 806 -64 1434 -64 
C 1978 -64 2259 361 2291 406 
L 2291 -64 
L 3066 -13 
L 3066 154 
C 2688 154 2630 193 2630 503 
L 2630 4416 
L 1869 4345 
z
M 2291 762 
C 2291 568 2176 393 2029 264 
C 1811 70 1594 38 1472 38 
C 1286 38 621 135 621 1369 
C 621 2636 1363 2713 1530 2713 
C 1824 2713 2061 2545 2208 2313 
C 2291 2177 2291 2157 2291 2041 
L 2291 762 
z
" transform="scale(0.015625)"/>
       <path id="CMR17-73" d="M 1978 2688 
C 1978 2803 1971 2809 1933 2809 
C 1907 2809 1901 2803 1824 2707 
C 1805 2681 1747 2617 1728 2592 
C 1523 2809 1235 2816 1126 2816 
C 416 2816 160 2444 160 2073 
C 160 1497 813 1363 998 1324 
C 1402 1241 1542 1216 1677 1100 
C 1760 1024 1901 883 1901 652 
C 1901 384 1747 38 1158 38 
C 602 38 403 460 288 1024 
C 269 1113 269 1120 218 1120 
C 166 1120 160 1113 160 985 
L 160 64 
C 160 -52 166 -58 205 -58 
C 237 -58 243 -52 275 0 
C 314 57 410 211 448 275 
C 576 102 800 -64 1158 -64 
C 1792 -64 2131 281 2131 780 
C 2131 1107 1958 1280 1875 1356 
C 1683 1555 1459 1600 1190 1651 
C 838 1728 390 1817 390 2208 
C 390 2374 480 2726 1126 2726 
C 1811 2726 1850 2086 1862 1881 
C 1869 1849 1901 1843 1920 1843 
C 1978 1843 1978 1862 1978 1971 
L 1978 2688 
z
" transform="scale(0.015625)"/>
       <path id="CMR17-74" d="M 966 2585 
L 1862 2585 
L 1862 2752 
L 966 2752 
L 966 3968 
L 851 3968 
C 838 3292 614 2700 70 2687 
L 70 2585 
L 627 2585 
L 627 778 
C 627 655 627 -64 1370 -64 
C 1747 -64 1965 308 1965 784 
L 1965 1151 
L 1850 1151 
L 1850 790 
C 1850 347 1677 51 1408 51 
C 1222 51 966 179 966 765 
L 966 2585 
z
" transform="scale(0.015625)"/>
       <path id="CMR17-6c" d="M 979 4416 
L 218 4345 
L 218 4179 
C 595 4179 653 4141 653 3835 
L 653 439 
C 653 198 627 166 218 166 
L 218 0 
C 371 12 653 12 813 12 
C 979 12 1261 12 1414 0 
L 1414 166 
C 1005 166 979 191 979 439 
L 979 4416 
z
" transform="scale(0.015625)"/>
       <path id="CMR17-71" d="M 2630 2816 
L 2528 2816 
L 2336 2177 
C 2189 2519 1920 2816 1491 2816 
C 838 2816 211 2228 211 1376 
C 211 529 800 -64 1440 -64 
C 1933 -64 2208 316 2291 458 
L 2291 -834 
C 2291 -1081 2266 -1114 1856 -1114 
L 1856 -1280 
C 2010 -1268 2291 -1268 2458 -1268 
C 2624 -1268 2912 -1268 3066 -1280 
L 3066 -1114 
C 2656 -1114 2630 -1088 2630 -834 
L 2630 2816 
z
M 2304 871 
C 2304 594 2074 335 2054 316 
C 1856 90 1626 38 1472 38 
C 992 38 621 652 621 1369 
C 621 2125 1043 2700 1536 2700 
C 2048 2700 2304 2112 2304 1776 
L 2304 871 
z
" transform="scale(0.015625)"/>
       <path id="CMR17-75" d="M 1882 2745 
L 1882 2579 
C 2259 2579 2317 2540 2317 2229 
L 2317 1053 
C 2317 510 2029 38 1555 38 
C 1030 38 986 355 986 691 
L 986 2816 
L 211 2745 
L 211 2579 
C 467 2579 640 2579 646 2320 
L 646 1079 
C 646 646 646 368 813 187 
C 896 103 1056 -64 1517 -64 
C 2061 -64 2272 400 2323 536 
L 2330 536 
L 2330 -64 
L 3091 -13 
L 3091 154 
C 2714 154 2656 193 2656 503 
L 2656 2816 
L 1882 2745 
z
" transform="scale(0.015625)"/>
       <path id="CMR17-13" d="M 2221 4157 
C 2298 4226 2317 4239 2317 4308 
C 2317 4403 2234 4480 2144 4480 
C 2067 4480 2042 4447 1978 4371 
L 1254 3468 
C 1210 3411 1210 3404 1210 3398 
C 1210 3391 1267 3334 1280 3321 
L 2221 4157 
z
" transform="scale(0.015625)"/>
       <path id="CMR17-28" d="M 1958 -1562 
C 1958 -1556 1958 -1543 1939 -1524 
C 1645 -1223 858 -403 858 1596 
C 858 3595 1632 4408 1946 4729 
C 1946 4735 1958 4748 1958 4767 
C 1958 4787 1939 4800 1914 4800 
C 1843 4800 1299 4325 986 3620 
C 666 2909 576 2218 576 1603 
C 576 1141 621 360 1005 -467 
C 1312 -1133 1837 -1600 1914 -1600 
C 1946 -1600 1958 -1588 1958 -1562 
z
" transform="scale(0.015625)"/>
       <path id="CMMI12-6b" d="M 1798 4255 
C 1805 4281 1818 4319 1818 4351 
C 1818 4416 1754 4416 1741 4416 
C 1734 4416 1504 4396 1389 4383 
C 1280 4377 1184 4364 1069 4358 
C 915 4345 870 4339 870 4223 
C 870 4159 934 4159 998 4159 
C 1325 4159 1325 4103 1325 4040 
C 1325 4014 1325 4002 1293 3888 
L 378 250 
C 352 153 352 141 352 102 
C 352 -39 461 -64 525 -64 
C 704 -64 742 76 794 275 
L 1094 1476 
C 1555 1425 1830 1232 1830 924 
C 1830 885 1830 860 1811 763 
C 1786 667 1786 590 1786 558 
C 1786 185 2029 -64 2355 -64 
C 2650 -64 2803 205 2854 295 
C 2989 532 3072 892 3072 917 
C 3072 949 3046 975 3008 975 
C 2950 975 2944 949 2918 847 
C 2829 513 2694 64 2368 64 
C 2240 64 2157 128 2157 372 
C 2157 494 2182 635 2208 731 
C 2234 847 2234 853 2234 930 
C 2234 1309 1894 1521 1306 1598 
C 1536 1739 1766 1989 1856 2086 
C 2221 2495 2470 2687 2765 2687 
C 2912 2687 2950 2655 2995 2624 
C 2758 2598 2669 2431 2669 2303 
C 2669 2150 2790 2099 2880 2099 
C 3053 2099 3206 2246 3206 2451 
C 3206 2634 3059 2816 2771 2816 
C 2419 2816 2131 2579 1677 2067 
C 1613 1989 1376 1746 1139 1656 
L 1798 4255 
z
" transform="scale(0.015625)"/>
       <path id="CMR17-29" d="M 1683 1596 
C 1683 2057 1638 2839 1254 3665 
C 947 4332 422 4800 346 4800 
C 326 4800 301 4793 301 4761 
C 301 4748 307 4742 314 4729 
C 621 4408 1402 3595 1402 1603 
C 1402 -396 627 -1210 314 -1530 
C 307 -1543 301 -1549 301 -1562 
C 301 -1594 326 -1600 346 -1600 
C 416 -1600 960 -1127 1274 -422 
C 1594 289 1683 981 1683 1596 
z
" transform="scale(0.015625)"/>
      </defs>
      <use xlink:href="#CMR17-4e" transform="scale(0.996264)"/>
      <use xlink:href="#CMR17-6f" transform="translate(69.07243 0) scale(0.996264)"/>
      <use xlink:href="#CMR17-6d" transform="translate(114.762907 0) scale(0.996264)"/>
      <use xlink:href="#CMR17-62" transform="translate(189.080043 0) scale(0.996264)"/>
      <use xlink:href="#CMR17-72" transform="translate(239.975413 0) scale(0.996264)"/>
      <use xlink:href="#CMR17-65" transform="translate(275.25618 0) scale(0.996264)"/>
      <use xlink:href="#CMR17-64" transform="translate(345.817807 0) scale(0.996264)"/>
      <use xlink:href="#CMR17-65" transform="translate(396.713177 0) scale(0.996264)"/>
      <use xlink:href="#CMR17-73" transform="translate(467.274804 0) scale(0.996264)"/>
      <use xlink:href="#CMR17-6f" transform="translate(503.076141 0) scale(0.996264)"/>
      <use xlink:href="#CMR17-6d" transform="translate(548.766619 0) scale(0.996264)"/>
      <use xlink:href="#CMR17-6d" transform="translate(625.686208 0) scale(0.996264)"/>
      <use xlink:href="#CMR17-65" transform="translate(702.605798 0) scale(0.996264)"/>
      <use xlink:href="#CMR17-74" transform="translate(743.091459 0) scale(0.996264)"/>
      <use xlink:href="#CMR17-62" transform="translate(808.448193 0) scale(0.996264)"/>
      <use xlink:href="#CMR17-6c" transform="translate(859.343563 0) scale(0.996264)"/>
      <use xlink:href="#CMR17-6f" transform="translate(884.214621 0) scale(0.996264)"/>
      <use xlink:href="#CMR17-71" transform="translate(932.507537 0) scale(0.996264)"/>
      <use xlink:href="#CMR17-75" transform="translate(980.800453 0) scale(0.996264)"/>
      <use xlink:href="#CMR17-13" transform="translate(1029.093414 0) scale(0.996264)"/>
      <use xlink:href="#CMR17-65" transform="translate(1031.695823 0) scale(0.996264)"/>
      <use xlink:href="#CMR17-28" transform="translate(1102.257449 0) scale(0.996264)"/>
      <use xlink:href="#CMMI12-6b" transform="translate(1137.538217 0) scale(0.996264)"/>
      <use xlink:href="#CMR17-29" transform="translate(1191.617418 0) scale(0.996264)"/>
     </g>
    </g>
   </g>
   <g id="matplotlib.axis_2">
    <g id="ytick_1">
     <g id="line2d_13">
      <path d="M 77.496848 337.214362 
L 396 337.214362 
" clip-path="url(#p575352465b)" style="fill: none; stroke: #b0b0b0; stroke-opacity: 0.3; stroke-width: 0.8; stroke-linecap: square"/>
     </g>
     <g id="line2d_14">
      <defs>
       <path id="m73a15b47ea" d="M 0 0 
L -3.5 0 
" style="stroke: #000000; stroke-width: 0.8"/>
      </defs>
      <g>
       <use xlink:href="#m73a15b47ea" x="77.496848" y="337.214362" style="stroke: #000000; stroke-width: 0.8"/>
      </g>
     </g>
     <g id="text_8">
      <!-- $\mathdefault{1.0000}$ -->
      <g transform="translate(27.141364 342.749156) scale(0.16 -0.16)">
       <defs>
        <path id="CMMI12-3a" d="M 1178 307 
C 1178 492 1024 620 870 620 
C 685 620 557 467 557 313 
C 557 128 710 0 864 0 
C 1050 0 1178 153 1178 307 
z
" transform="scale(0.015625)"/>
       </defs>
       <use xlink:href="#CMR17-31" transform="scale(0.996264)"/>
       <use xlink:href="#CMMI12-3a" transform="translate(45.690477 0) scale(0.996264)"/>
       <use xlink:href="#CMR17-30" transform="translate(72.787654 0) scale(0.996264)"/>
       <use xlink:href="#CMR17-30" transform="translate(118.478131 0) scale(0.996264)"/>
       <use xlink:href="#CMR17-30" transform="translate(164.168608 0) scale(0.996264)"/>
       <use xlink:href="#CMR17-30" transform="translate(209.859086 0) scale(0.996264)"/>
      </g>
     </g>
    </g>
    <g id="ytick_2">
     <g id="line2d_15">
      <path d="M 77.496848 296.98404 
L 396 296.98404 
" clip-path="url(#p575352465b)" style="fill: none; stroke: #b0b0b0; stroke-opacity: 0.3; stroke-width: 0.8; stroke-linecap: square"/>
     </g>
     <g id="line2d_16">
      <g>
       <use xlink:href="#m73a15b47ea" x="77.496848" y="296.98404" style="stroke: #000000; stroke-width: 0.8"/>
      </g>
     </g>
     <g id="text_9">
      <!-- $\mathdefault{1.0005}$ -->
      <g transform="translate(27.141364 302.518834) scale(0.16 -0.16)">
       <use xlink:href="#CMR17-31" transform="scale(0.996264)"/>
       <use xlink:href="#CMMI12-3a" transform="translate(45.690477 0) scale(0.996264)"/>
       <use xlink:href="#CMR17-30" transform="translate(72.787654 0) scale(0.996264)"/>
       <use xlink:href="#CMR17-30" transform="translate(118.478131 0) scale(0.996264)"/>
       <use xlink:href="#CMR17-30" transform="translate(164.168608 0) scale(0.996264)"/>
       <use xlink:href="#CMR17-35" transform="translate(209.859086 0) scale(0.996264)"/>
      </g>
     </g>
    </g>
    <g id="ytick_3">
     <g id="line2d_17">
      <path d="M 77.496848 256.753718 
L 396 256.753718 
" clip-path="url(#p575352465b)" style="fill: none; stroke: #b0b0b0; stroke-opacity: 0.3; stroke-width: 0.8; stroke-linecap: square"/>
     </g>
     <g id="line2d_18">
      <g>
       <use xlink:href="#m73a15b47ea" x="77.496848" y="256.753718" style="stroke: #000000; stroke-width: 0.8"/>
      </g>
     </g>
     <g id="text_10">
      <!-- $\mathdefault{1.0010}$ -->
      <g transform="translate(27.141364 262.288512) scale(0.16 -0.16)">
       <use xlink:href="#CMR17-31" transform="scale(0.996264)"/>
       <use xlink:href="#CMMI12-3a" transform="translate(45.690477 0) scale(0.996264)"/>
       <use xlink:href="#CMR17-30" transform="translate(72.787654 0) scale(0.996264)"/>
       <use xlink:href="#CMR17-30" transform="translate(118.478131 0) scale(0.996264)"/>
       <use xlink:href="#CMR17-31" transform="translate(164.168608 0) scale(0.996264)"/>
       <use xlink:href="#CMR17-30" transform="translate(209.859086 0) scale(0.996264)"/>
      </g>
     </g>
    </g>
    <g id="ytick_4">
     <g id="line2d_19">
      <path d="M 77.496848 216.523395 
L 396 216.523395 
" clip-path="url(#p575352465b)" style="fill: none; stroke: #b0b0b0; stroke-opacity: 0.3; stroke-width: 0.8; stroke-linecap: square"/>
     </g>
     <g id="line2d_20">
      <g>
       <use xlink:href="#m73a15b47ea" x="77.496848" y="216.523395" style="stroke: #000000; stroke-width: 0.8"/>
      </g>
     </g>
     <g id="text_11">
      <!-- $\mathdefault{1.0015}$ -->
      <g transform="translate(27.141364 222.05819) scale(0.16 -0.16)">
       <use xlink:href="#CMR17-31" transform="scale(0.996264)"/>
       <use xlink:href="#CMMI12-3a" transform="translate(45.690477 0) scale(0.996264)"/>
       <use xlink:href="#CMR17-30" transform="translate(72.787654 0) scale(0.996264)"/>
       <use xlink:href="#CMR17-30" transform="translate(118.478131 0) scale(0.996264)"/>
       <use xlink:href="#CMR17-31" transform="translate(164.168608 0) scale(0.996264)"/>
       <use xlink:href="#CMR17-35" transform="translate(209.859086 0) scale(0.996264)"/>
      </g>
     </g>
    </g>
    <g id="ytick_5">
     <g id="line2d_21">
      <path d="M 77.496848 176.293073 
L 396 176.293073 
" clip-path="url(#p575352465b)" style="fill: none; stroke: #b0b0b0; stroke-opacity: 0.3; stroke-width: 0.8; stroke-linecap: square"/>
     </g>
     <g id="line2d_22">
      <g>
       <use xlink:href="#m73a15b47ea" x="77.496848" y="176.293073" style="stroke: #000000; stroke-width: 0.8"/>
      </g>
     </g>
     <g id="text_12">
      <!-- $\mathdefault{1.0020}$ -->
      <g transform="translate(27.141364 181.827867) scale(0.16 -0.16)">
       <use xlink:href="#CMR17-31" transform="scale(0.996264)"/>
       <use xlink:href="#CMMI12-3a" transform="translate(45.690477 0) scale(0.996264)"/>
       <use xlink:href="#CMR17-30" transform="translate(72.787654 0) scale(0.996264)"/>
       <use xlink:href="#CMR17-30" transform="translate(118.478131 0) scale(0.996264)"/>
       <use xlink:href="#CMR17-32" transform="translate(164.168608 0) scale(0.996264)"/>
       <use xlink:href="#CMR17-30" transform="translate(209.859086 0) scale(0.996264)"/>
      </g>
     </g>
    </g>
    <g id="ytick_6">
     <g id="line2d_23">
      <path d="M 77.496848 136.062751 
L 396 136.062751 
" clip-path="url(#p575352465b)" style="fill: none; stroke: #b0b0b0; stroke-opacity: 0.3; stroke-width: 0.8; stroke-linecap: square"/>
     </g>
     <g id="line2d_24">
      <g>
       <use xlink:href="#m73a15b47ea" x="77.496848" y="136.062751" style="stroke: #000000; stroke-width: 0.8"/>
      </g>
     </g>
     <g id="text_13">
      <!-- $\mathdefault{1.0025}$ -->
      <g transform="translate(27.141364 141.597545) scale(0.16 -0.16)">
       <use xlink:href="#CMR17-31" transform="scale(0.996264)"/>
       <use xlink:href="#CMMI12-3a" transform="translate(45.690477 0) scale(0.996264)"/>
       <use xlink:href="#CMR17-30" transform="translate(72.787654 0) scale(0.996264)"/>
       <use xlink:href="#CMR17-30" transform="translate(118.478131 0) scale(0.996264)"/>
       <use xlink:href="#CMR17-32" transform="translate(164.168608 0) scale(0.996264)"/>
       <use xlink:href="#CMR17-35" transform="translate(209.859086 0) scale(0.996264)"/>
      </g>
     </g>
    </g>
    <g id="ytick_7">
     <g id="line2d_25">
      <path d="M 77.496848 95.832429 
L 396 95.832429 
" clip-path="url(#p575352465b)" style="fill: none; stroke: #b0b0b0; stroke-opacity: 0.3; stroke-width: 0.8; stroke-linecap: square"/>
     </g>
     <g id="line2d_26">
      <g>
       <use xlink:href="#m73a15b47ea" x="77.496848" y="95.832429" style="stroke: #000000; stroke-width: 0.8"/>
      </g>
     </g>
     <g id="text_14">
      <!-- $\mathdefault{1.0030}$ -->
      <g transform="translate(27.141364 101.367223) scale(0.16 -0.16)">
       <defs>
        <path id="CMR17-33" d="M 1414 2176 
C 1984 2176 2234 1673 2234 1094 
C 2234 322 1824 25 1453 25 
C 1114 25 563 193 390 691 
C 422 678 454 678 486 678 
C 640 678 755 780 755 947 
C 755 1132 614 1216 486 1216 
C 378 1216 211 1164 211 927 
C 211 335 787 -128 1466 -128 
C 2176 -128 2720 432 2720 1087 
C 2720 1718 2208 2176 1600 2246 
C 2086 2347 2554 2776 2554 3353 
C 2554 3856 2048 4224 1472 4224 
C 890 4224 378 3862 378 3347 
C 378 3123 544 3084 627 3084 
C 762 3084 877 3167 877 3334 
C 877 3500 762 3584 627 3584 
C 602 3584 570 3584 544 3571 
C 730 3999 1235 4076 1459 4076 
C 1683 4076 2106 3966 2106 3347 
C 2106 3167 2080 2851 1862 2574 
C 1670 2329 1453 2316 1242 2297 
C 1210 2297 1062 2284 1037 2284 
C 992 2278 966 2272 966 2227 
C 966 2182 973 2176 1101 2176 
L 1414 2176 
z
" transform="scale(0.015625)"/>
       </defs>
       <use xlink:href="#CMR17-31" transform="scale(0.996264)"/>
       <use xlink:href="#CMMI12-3a" transform="translate(45.690477 0) scale(0.996264)"/>
       <use xlink:href="#CMR17-30" transform="translate(72.787654 0) scale(0.996264)"/>
       <use xlink:href="#CMR17-30" transform="translate(118.478131 0) scale(0.996264)"/>
       <use xlink:href="#CMR17-33" transform="translate(164.168608 0) scale(0.996264)"/>
       <use xlink:href="#CMR17-30" transform="translate(209.859086 0) scale(0.996264)"/>
      </g>
     </g>
    </g>
    <g id="ytick_8">
     <g id="line2d_27">
      <path d="M 77.496848 55.602106 
L 396 55.602106 
" clip-path="url(#p575352465b)" style="fill: none; stroke: #b0b0b0; stroke-opacity: 0.3; stroke-width: 0.8; stroke-linecap: square"/>
     </g>
     <g id="line2d_28">
      <g>
       <use xlink:href="#m73a15b47ea" x="77.496848" y="55.602106" style="stroke: #000000; stroke-width: 0.8"/>
      </g>
     </g>
     <g id="text_15">
      <!-- $\mathdefault{1.0035}$ -->
      <g transform="translate(27.141364 61.136901) scale(0.16 -0.16)">
       <use xlink:href="#CMR17-31" transform="scale(0.996264)"/>
       <use xlink:href="#CMMI12-3a" transform="translate(45.690477 0) scale(0.996264)"/>
       <use xlink:href="#CMR17-30" transform="translate(72.787654 0) scale(0.996264)"/>
       <use xlink:href="#CMR17-30" transform="translate(118.478131 0) scale(0.996264)"/>
       <use xlink:href="#CMR17-33" transform="translate(164.168608 0) scale(0.996264)"/>
       <use xlink:href="#CMR17-35" transform="translate(209.859086 0) scale(0.996264)"/>
      </g>
     </g>
    </g>
    <g id="ytick_9">
     <g id="line2d_29">
      <path d="M 77.496848 15.371784 
L 396 15.371784 
" clip-path="url(#p575352465b)" style="fill: none; stroke: #b0b0b0; stroke-opacity: 0.3; stroke-width: 0.8; stroke-linecap: square"/>
     </g>
     <g id="line2d_30">
      <g>
       <use xlink:href="#m73a15b47ea" x="77.496848" y="15.371784" style="stroke: #000000; stroke-width: 0.8"/>
      </g>
     </g>
     <g id="text_16">
      <!-- $\mathdefault{1.0040}$ -->
      <g transform="translate(27.141364 20.906578) scale(0.16 -0.16)">
       <defs>
        <path id="CMR17-34" d="M 2150 4147 
C 2150 4281 2144 4288 2029 4288 
L 128 1254 
L 128 1088 
L 1779 1088 
L 1779 460 
C 1779 230 1766 166 1318 166 
L 1197 166 
L 1197 0 
C 1402 12 1747 12 1965 12 
C 2182 12 2528 12 2733 0 
L 2733 166 
L 2611 166 
C 2163 166 2150 230 2150 460 
L 2150 1088 
L 2803 1088 
L 2803 1254 
L 2150 1254 
L 2150 4147 
z
M 1798 3723 
L 1798 1254 
L 256 1254 
L 1798 3723 
z
" transform="scale(0.015625)"/>
       </defs>
       <use xlink:href="#CMR17-31" transform="scale(0.996264)"/>
       <use xlink:href="#CMMI12-3a" transform="translate(45.690477 0) scale(0.996264)"/>
       <use xlink:href="#CMR17-30" transform="translate(72.787654 0) scale(0.996264)"/>
       <use xlink:href="#CMR17-30" transform="translate(118.478131 0) scale(0.996264)"/>
       <use xlink:href="#CMR17-34" transform="translate(164.168608 0) scale(0.996264)"/>
       <use xlink:href="#CMR17-30" transform="translate(209.859086 0) scale(0.996264)"/>
      </g>
     </g>
    </g>
    <g id="text_17">
     <!-- Ratio -->
     <g transform="translate(19.6533 199.803808) rotate(-90) scale(0.18 -0.18)">
      <defs>
       <path id="CMR17-52" d="M 2509 2156 
C 3117 2278 3629 2689 3629 3203 
C 3629 3806 2950 4352 2054 4352 
L 333 4352 
L 333 4185 
C 774 4185 845 4185 845 3896 
L 845 428 
C 845 140 774 140 333 140 
L 333 -26 
C 518 -13 851 -13 1050 -13 
C 1248 -13 1581 -13 1766 -26 
L 1766 140 
C 1325 140 1254 140 1254 428 
L 1254 2112 
L 2003 2112 
C 2368 2112 2573 1964 2662 1881 
C 2918 1632 2918 1459 2918 1024 
C 2918 595 2918 377 3110 160 
C 3354 -103 3680 -128 3821 -128 
C 4294 -128 4365 403 4365 512 
C 4365 550 4365 595 4307 595 
C 4256 595 4250 556 4250 531 
C 4218 115 4032 -26 3834 -26 
C 3482 -26 3443 377 3405 768 
C 3386 902 3373 998 3360 1139 
C 3322 1459 3270 1926 2509 2156 
z
M 1984 2214 
L 1254 2214 
L 1254 3935 
C 1254 4153 1267 4185 1523 4185 
L 1990 4185 
C 2522 4185 3142 3999 3142 3203 
C 3142 2374 2464 2214 1984 2214 
z
" transform="scale(0.015625)"/>
       <path id="CMR17-61" d="M 2304 1656 
C 2304 2048 2304 2275 2035 2534 
C 1798 2751 1523 2816 1306 2816 
C 800 2816 435 2408 435 1977 
C 435 1740 627 1728 666 1728 
C 749 1728 896 1779 896 1958 
C 896 2118 774 2188 666 2188 
C 640 2188 608 2182 589 2176 
C 723 2594 1069 2713 1293 2713 
C 1613 2713 1965 2421 1965 1875 
L 1965 1632 
C 1587 1619 1133 1568 774 1373 
C 371 1147 256 822 256 576 
C 256 77 832 -64 1171 -64 
C 1523 -64 1850 135 1990 505 
C 2003 219 2182 -39 2464 -39 
C 2598 -39 2938 51 2938 563 
L 2938 926 
L 2822 926 
L 2822 557 
C 2822 161 2650 109 2566 109 
C 2304 109 2304 446 2304 732 
L 2304 1656 
z
M 1965 887 
C 1965 323 1568 38 1216 38 
C 896 38 646 278 646 576 
C 646 771 730 1114 1101 1322 
C 1408 1497 1760 1523 1965 1536 
L 1965 887 
z
" transform="scale(0.015625)"/>
       <path id="CMR17-69" d="M 992 3961 
C 992 4102 877 4224 730 4224 
C 589 4224 467 4108 467 3961 
C 467 3820 582 3699 730 3699 
C 870 3699 992 3814 992 3961 
z
M 243 2745 
L 243 2579 
C 602 2579 653 2540 653 2231 
L 653 443 
C 653 198 627 166 218 166 
L 218 0 
C 371 12 646 12 806 12 
C 960 12 1222 12 1370 0 
L 1370 166 
C 992 166 979 205 979 436 
L 979 2816 
L 243 2745 
z
" transform="scale(0.015625)"/>
      </defs>
      <use xlink:href="#CMR17-52" transform="scale(0.996264)"/>
      <use xlink:href="#CMR17-61" transform="translate(67.791102 0) scale(0.996264)"/>
      <use xlink:href="#CMR17-74" transform="translate(113.481579 0) scale(0.996264)"/>
      <use xlink:href="#CMR17-69" transform="translate(148.762347 0) scale(0.996264)"/>
      <use xlink:href="#CMR17-6f" transform="translate(173.633405 0) scale(0.996264)"/>
     </g>
    </g>
   </g>
   <g id="line2d_31">
    <path d="M 91.974264 337.214362 
L 105.762279 337.214362 
L 119.550294 337.214362 
L 133.338309 211.494605 
L 147.126325 337.214362 
L 160.91434 337.214362 
L 174.702355 211.494605 
L 188.49037 190.541312 
L 202.278386 190.541312 
L 216.066401 169.588019 
L 229.854416 22.91497 
L 243.642431 148.634727 
L 257.430447 169.588019 
L 271.218462 22.91497 
L 285.006477 22.91497 
L 298.794492 22.91497 
L 312.582508 22.91497 
L 326.370523 22.91497 
L 340.158538 22.91497 
L 353.946553 22.91497 
L 367.734569 22.91497 
L 381.522584 22.91497 
" clip-path="url(#p575352465b)" style="fill: none; stroke: #3498db; stroke-width: 2.5; stroke-linecap: square"/>
    <defs>
     <path id="m23c77acecc" d="M 0 4 
C 1.060812 4 2.078319 3.578535 2.828427 2.828427 
C 3.578535 2.078319 4 1.060812 4 0 
C 4 -1.060812 3.578535 -2.078319 2.828427 -2.828427 
C 2.078319 -3.578535 1.060812 -4 0 -4 
C -1.060812 -4 -2.078319 -3.578535 -2.828427 -2.828427 
C -3.578535 -2.078319 -4 -1.060812 -4 0 
C -4 1.060812 -3.578535 2.078319 -2.828427 2.828427 
C -2.078319 3.578535 -1.060812 4 0 4 
z
" style="stroke: #3498db"/>
    </defs>
    <g clip-path="url(#p575352465b)">
     <use xlink:href="#m23c77acecc" x="91.974264" y="337.214362" style="fill: #3498db; stroke: #3498db"/>
     <use xlink:href="#m23c77acecc" x="105.762279" y="337.214362" style="fill: #3498db; stroke: #3498db"/>
     <use xlink:href="#m23c77acecc" x="119.550294" y="337.214362" style="fill: #3498db; stroke: #3498db"/>
     <use xlink:href="#m23c77acecc" x="133.338309" y="211.494605" style="fill: #3498db; stroke: #3498db"/>
     <use xlink:href="#m23c77acecc" x="147.126325" y="337.214362" style="fill: #3498db; stroke: #3498db"/>
     <use xlink:href="#m23c77acecc" x="160.91434" y="337.214362" style="fill: #3498db; stroke: #3498db"/>
     <use xlink:href="#m23c77acecc" x="174.702355" y="211.494605" style="fill: #3498db; stroke: #3498db"/>
     <use xlink:href="#m23c77acecc" x="188.49037" y="190.541312" style="fill: #3498db; stroke: #3498db"/>
     <use xlink:href="#m23c77acecc" x="202.278386" y="190.541312" style="fill: #3498db; stroke: #3498db"/>
     <use xlink:href="#m23c77acecc" x="216.066401" y="169.588019" style="fill: #3498db; stroke: #3498db"/>
     <use xlink:href="#m23c77acecc" x="229.854416" y="22.91497" style="fill: #3498db; stroke: #3498db"/>
     <use xlink:href="#m23c77acecc" x="243.642431" y="148.634727" style="fill: #3498db; stroke: #3498db"/>
     <use xlink:href="#m23c77acecc" x="257.430447" y="169.588019" style="fill: #3498db; stroke: #3498db"/>
     <use xlink:href="#m23c77acecc" x="271.218462" y="22.91497" style="fill: #3498db; stroke: #3498db"/>
     <use xlink:href="#m23c77acecc" x="285.006477" y="22.91497" style="fill: #3498db; stroke: #3498db"/>
     <use xlink:href="#m23c77acecc" x="298.794492" y="22.91497" style="fill: #3498db; stroke: #3498db"/>
     <use xlink:href="#m23c77acecc" x="312.582508" y="22.91497" style="fill: #3498db; stroke: #3498db"/>
     <use xlink:href="#m23c77acecc" x="326.370523" y="22.91497" style="fill: #3498db; stroke: #3498db"/>
     <use xlink:href="#m23c77acecc" x="340.158538" y="22.91497" style="fill: #3498db; stroke: #3498db"/>
     <use xlink:href="#m23c77acecc" x="353.946553" y="22.91497" style="fill: #3498db; stroke: #3498db"/>
     <use xlink:href="#m23c77acecc" x="367.734569" y="22.91497" style="fill: #3498db; stroke: #3498db"/>
     <use xlink:href="#m23c77acecc" x="381.522584" y="22.91497" style="fill: #3498db; stroke: #3498db"/>
    </g>
   </g>
   <g id="line2d_32">
    <path d="M 91.974264 337.214362 
L 105.762279 337.214362 
L 119.550294 337.214362 
L 133.338309 337.214362 
L 147.126325 337.214362 
L 160.91434 337.214362 
L 174.702355 337.214362 
L 188.49037 337.214362 
L 202.278386 337.214362 
L 216.066401 337.214362 
L 229.854416 337.214362 
L 243.642431 337.214362 
L 257.430447 337.214362 
L 271.218462 337.214362 
L 285.006477 337.214362 
L 298.794492 337.214362 
L 312.582508 337.214362 
L 326.370523 337.214362 
L 340.158538 337.214362 
L 353.946553 337.214362 
L 367.734569 337.214362 
L 381.522584 337.214362 
" clip-path="url(#p575352465b)" style="fill: none; stroke: #d66b6a; stroke-width: 2.5; stroke-linecap: square"/>
    <defs>
     <path id="m7407beafaf" d="M -4 4 
L 4 4 
L 4 -4 
L -4 -4 
z
" style="stroke: #d66b6a; stroke-linejoin: miter"/>
    </defs>
    <g clip-path="url(#p575352465b)">
     <use xlink:href="#m7407beafaf" x="91.974264" y="337.214362" style="fill: #d66b6a; stroke: #d66b6a; stroke-linejoin: miter"/>
     <use xlink:href="#m7407beafaf" x="105.762279" y="337.214362" style="fill: #d66b6a; stroke: #d66b6a; stroke-linejoin: miter"/>
     <use xlink:href="#m7407beafaf" x="119.550294" y="337.214362" style="fill: #d66b6a; stroke: #d66b6a; stroke-linejoin: miter"/>
     <use xlink:href="#m7407beafaf" x="133.338309" y="337.214362" style="fill: #d66b6a; stroke: #d66b6a; stroke-linejoin: miter"/>
     <use xlink:href="#m7407beafaf" x="147.126325" y="337.214362" style="fill: #d66b6a; stroke: #d66b6a; stroke-linejoin: miter"/>
     <use xlink:href="#m7407beafaf" x="160.91434" y="337.214362" style="fill: #d66b6a; stroke: #d66b6a; stroke-linejoin: miter"/>
     <use xlink:href="#m7407beafaf" x="174.702355" y="337.214362" style="fill: #d66b6a; stroke: #d66b6a; stroke-linejoin: miter"/>
     <use xlink:href="#m7407beafaf" x="188.49037" y="337.214362" style="fill: #d66b6a; stroke: #d66b6a; stroke-linejoin: miter"/>
     <use xlink:href="#m7407beafaf" x="202.278386" y="337.214362" style="fill: #d66b6a; stroke: #d66b6a; stroke-linejoin: miter"/>
     <use xlink:href="#m7407beafaf" x="216.066401" y="337.214362" style="fill: #d66b6a; stroke: #d66b6a; stroke-linejoin: miter"/>
     <use xlink:href="#m7407beafaf" x="229.854416" y="337.214362" style="fill: #d66b6a; stroke: #d66b6a; stroke-linejoin: miter"/>
     <use xlink:href="#m7407beafaf" x="243.642431" y="337.214362" style="fill: #d66b6a; stroke: #d66b6a; stroke-linejoin: miter"/>
     <use xlink:href="#m7407beafaf" x="257.430447" y="337.214362" style="fill: #d66b6a; stroke: #d66b6a; stroke-linejoin: miter"/>
     <use xlink:href="#m7407beafaf" x="271.218462" y="337.214362" style="fill: #d66b6a; stroke: #d66b6a; stroke-linejoin: miter"/>
     <use xlink:href="#m7407beafaf" x="285.006477" y="337.214362" style="fill: #d66b6a; stroke: #d66b6a; stroke-linejoin: miter"/>
     <use xlink:href="#m7407beafaf" x="298.794492" y="337.214362" style="fill: #d66b6a; stroke: #d66b6a; stroke-linejoin: miter"/>
     <use xlink:href="#m7407beafaf" x="312.582508" y="337.214362" style="fill: #d66b6a; stroke: #d66b6a; stroke-linejoin: miter"/>
     <use xlink:href="#m7407beafaf" x="326.370523" y="337.214362" style="fill: #d66b6a; stroke: #d66b6a; stroke-linejoin: miter"/>
     <use xlink:href="#m7407beafaf" x="340.158538" y="337.214362" style="fill: #d66b6a; stroke: #d66b6a; stroke-linejoin: miter"/>
     <use xlink:href="#m7407beafaf" x="353.946553" y="337.214362" style="fill: #d66b6a; stroke: #d66b6a; stroke-linejoin: miter"/>
     <use xlink:href="#m7407beafaf" x="367.734569" y="337.214362" style="fill: #d66b6a; stroke: #d66b6a; stroke-linejoin: miter"/>
     <use xlink:href="#m7407beafaf" x="381.522584" y="337.214362" style="fill: #d66b6a; stroke: #d66b6a; stroke-linejoin: miter"/>
    </g>
   </g>
   <g id="line2d_33">
    <path d="M 77.496848 337.214362 
L 396 337.214362 
" clip-path="url(#p575352465b)" style="fill: none; stroke: #000000; stroke-width: 1.5; stroke-linecap: square"/>
   </g>
   <g id="patch_3">
    <path d="M 77.496848 352.929332 
L 77.496848 7.2 
" style="fill: none; stroke: #000000; stroke-width: 0.8; stroke-linejoin: miter; stroke-linecap: square"/>
   </g>
   <g id="patch_4">
    <path d="M 396 352.929332 
L 396 7.2 
" style="fill: none; stroke: #000000; stroke-width: 0.8; stroke-linejoin: miter; stroke-linecap: square"/>
   </g>
   <g id="patch_5">
    <path d="M 77.496848 352.929332 
L 396 352.929332 
" style="fill: none; stroke: #000000; stroke-width: 0.8; stroke-linejoin: miter; stroke-linecap: square"/>
   </g>
   <g id="patch_6">
    <path d="M 77.496848 7.2 
L 396 7.2 
" style="fill: none; stroke: #000000; stroke-width: 0.8; stroke-linejoin: miter; stroke-linecap: square"/>
   </g>
   <g id="legend_1">
    <g id="patch_7">
     <path d="M 191.242666 238.213356 
L 384.8 238.213356 
Q 388 238.213356 388 235.013356 
L 388 125.115975 
Q 388 121.915975 384.8 121.915975 
L 191.242666 121.915975 
Q 188.042666 121.915975 188.042666 125.115975 
L 188.042666 235.013356 
Q 188.042666 238.213356 191.242666 238.213356 
z
" style="fill: #ffffff; opacity: 0.9; stroke: #cccccc; stroke-linejoin: miter"/>
    </g>
    <g id="patch_8">
     <path d="M 194.442666 139.515975 
L 226.442666 139.515975 
L 226.442666 128.315975 
L 194.442666 128.315975 
z
" style="fill: #3498db; fill-opacity: 0.2; stroke: #3498db; stroke-opacity: 0.2; stroke-linejoin: miter"/>
    </g>
    <g id="text_18">
     <!-- IQ des ratios CNN -->
     <g transform="translate(239.242666 139.515975) scale(0.16 -0.16)">
      <defs>
       <path id="CMR17-49" d="M 1261 3898 
C 1261 4185 1338 4185 1798 4185 
L 1798 4352 
C 1594 4339 1267 4339 1050 4339 
C 832 4339 506 4339 301 4352 
L 301 4185 
C 762 4185 838 4185 838 3898 
L 838 453 
C 838 166 762 166 301 166 
L 301 0 
C 506 12 832 12 1050 12 
C 1267 12 1594 12 1798 0 
L 1798 166 
C 1338 166 1261 166 1261 453 
L 1261 3898 
z
" transform="scale(0.015625)"/>
       <path id="CMR17-51" d="M 3027 31 
C 3789 355 4307 1187 4307 2157 
C 4307 3484 3366 4480 2304 4480 
C 1216 4480 294 3471 294 2157 
C 294 863 1216 -128 2304 -128 
C 2451 -128 2656 -109 2899 -26 
C 3008 -813 3078 -1280 3629 -1280 
C 4307 -1280 4339 -277 4339 -96 
C 4339 -32 4339 12 4294 12 
C 4262 12 4256 -32 4256 -45 
C 4211 -665 3866 -794 3661 -794 
C 3283 -794 3149 -452 3027 31 
z
M 1958 38 
C 1293 247 768 954 768 2157 
C 768 3698 1606 4364 2298 4364 
C 3014 4364 3834 3672 3834 2157 
C 3834 1064 3405 463 2976 190 
C 2880 514 2726 896 2310 896 
C 2003 896 1830 628 1830 387 
C 1830 241 1888 120 1958 38 
z
M 2874 133 
C 2618 -1 2413 -13 2304 -13 
C 2016 -13 1933 247 1933 387 
C 1933 584 2067 793 2310 793 
C 2720 793 2822 431 2874 133 
z
" transform="scale(0.015625)"/>
       <path id="CMR17-43" d="M 3974 4351 
C 3974 4467 3968 4473 3930 4473 
C 3904 4473 3898 4467 3853 4390 
L 3571 3849 
C 3258 4249 2874 4480 2381 4480 
C 1286 4480 294 3507 294 2179 
C 294 837 1286 -128 2387 -128 
C 3366 -128 3974 741 3974 1482 
C 3974 1547 3974 1573 3917 1573 
C 3866 1573 3866 1553 3859 1495 
C 3808 592 3168 38 2477 38 
C 1824 38 781 502 781 2179 
C 781 3862 1843 4313 2464 4313 
C 3187 4313 3712 3681 3834 2785 
C 3846 2707 3846 2695 3904 2695 
C 3974 2695 3974 2707 3974 2824 
L 3974 4351 
z
" transform="scale(0.015625)"/>
      </defs>
      <use xlink:href="#CMR17-49" transform="scale(0.996264)"/>
      <use xlink:href="#CMR17-51" transform="translate(32.638409 0) scale(0.996264)"/>
      <use xlink:href="#CMR17-64" transform="translate(134.429164 0) scale(0.996264)"/>
      <use xlink:href="#CMR17-65" transform="translate(185.324534 0) scale(0.996264)"/>
      <use xlink:href="#CMR17-73" transform="translate(225.810194 0) scale(0.996264)"/>
      <use xlink:href="#CMR17-72" transform="translate(291.687498 0) scale(0.996264)"/>
      <use xlink:href="#CMR17-61" transform="translate(326.968266 0) scale(0.996264)"/>
      <use xlink:href="#CMR17-74" transform="translate(372.658743 0) scale(0.996264)"/>
      <use xlink:href="#CMR17-69" transform="translate(407.939511 0) scale(0.996264)"/>
      <use xlink:href="#CMR17-6f" transform="translate(432.810569 0) scale(0.996264)"/>
      <use xlink:href="#CMR17-73" transform="translate(478.501046 0) scale(0.996264)"/>
      <use xlink:href="#CMR17-43" transform="translate(544.37835 0) scale(0.996264)"/>
      <use xlink:href="#CMR17-4e" transform="translate(610.888231 0) scale(0.996264)"/>
      <use xlink:href="#CMR17-4e" transform="translate(679.960661 0) scale(0.996264)"/>
     </g>
    </g>
    <g id="line2d_34">
     <path d="M 194.442666 156.215452 
L 210.442666 156.215452 
L 226.442666 156.215452 
" style="fill: none; stroke: #3498db; stroke-width: 2.5; stroke-linecap: square"/>
     <g>
      <use xlink:href="#m23c77acecc" x="210.442666" y="156.215452" style="fill: #3498db; stroke: #3498db"/>
     </g>
    </g>
    <g id="text_19">
     <!-- IQM des ratios CNN -->
     <g transform="translate(239.242666 161.815452) scale(0.16 -0.16)">
      <defs>
       <path id="CMR17-4d" d="M 1338 4249 
C 1299 4345 1293 4352 1158 4352 
L 339 4352 
L 339 4185 
C 781 4185 851 4185 851 3898 
L 851 624 
C 851 465 851 166 339 166 
L 339 0 
C 486 12 755 12 915 12 
C 1075 12 1344 12 1491 0 
L 1491 166 
C 979 166 979 465 979 624 
L 979 4159 
L 986 4159 
L 2490 102 
C 2515 38 2528 0 2579 0 
C 2630 0 2643 38 2669 102 
L 4186 4191 
L 4192 4191 
L 4192 453 
C 4192 166 4122 166 3680 166 
L 3680 0 
C 3853 12 4198 12 4384 12 
C 4570 12 4922 12 5094 0 
L 5094 166 
C 4653 166 4582 166 4582 453 
L 4582 3898 
C 4582 4185 4653 4185 5094 4185 
L 5094 4352 
L 4282 4352 
C 4147 4352 4141 4345 4102 4249 
L 2720 516 
L 1338 4249 
z
" transform="scale(0.015625)"/>
      </defs>
      <use xlink:href="#CMR17-49" transform="scale(0.996264)"/>
      <use xlink:href="#CMR17-51" transform="translate(32.638409 0) scale(0.996264)"/>
      <use xlink:href="#CMR17-4d" transform="translate(104.353198 0) scale(0.996264)"/>
      <use xlink:href="#CMR17-64" transform="translate(219.116105 0) scale(0.996264)"/>
      <use xlink:href="#CMR17-65" transform="translate(270.011474 0) scale(0.996264)"/>
      <use xlink:href="#CMR17-73" transform="translate(310.497135 0) scale(0.996264)"/>
      <use xlink:href="#CMR17-72" transform="translate(376.374439 0) scale(0.996264)"/>
      <use xlink:href="#CMR17-61" transform="translate(411.655207 0) scale(0.996264)"/>
      <use xlink:href="#CMR17-74" transform="translate(457.345684 0) scale(0.996264)"/>
      <use xlink:href="#CMR17-69" transform="translate(492.626451 0) scale(0.996264)"/>
      <use xlink:href="#CMR17-6f" transform="translate(517.49751 0) scale(0.996264)"/>
      <use xlink:href="#CMR17-73" transform="translate(563.187987 0) scale(0.996264)"/>
      <use xlink:href="#CMR17-43" transform="translate(629.065291 0) scale(0.996264)"/>
      <use xlink:href="#CMR17-4e" transform="translate(695.575172 0) scale(0.996264)"/>
      <use xlink:href="#CMR17-4e" transform="translate(764.647601 0) scale(0.996264)"/>
     </g>
    </g>
    <g id="patch_9">
     <path d="M 194.442666 184.114928 
L 226.442666 184.114928 
L 226.442666 172.914928 
L 194.442666 172.914928 
z
" style="fill: #d66b6a; fill-opacity: 0.2; stroke: #d66b6a; stroke-opacity: 0.2; stroke-linejoin: miter"/>
    </g>
    <g id="text_20">
     <!-- IQ des ratios CR -->
     <g transform="translate(239.242666 184.114928) scale(0.16 -0.16)">
      <use xlink:href="#CMR17-49" transform="scale(0.996264)"/>
      <use xlink:href="#CMR17-51" transform="translate(32.638409 0) scale(0.996264)"/>
      <use xlink:href="#CMR17-64" transform="translate(134.429164 0) scale(0.996264)"/>
      <use xlink:href="#CMR17-65" transform="translate(185.324534 0) scale(0.996264)"/>
      <use xlink:href="#CMR17-73" transform="translate(225.810194 0) scale(0.996264)"/>
      <use xlink:href="#CMR17-72" transform="translate(291.687498 0) scale(0.996264)"/>
      <use xlink:href="#CMR17-61" transform="translate(326.968266 0) scale(0.996264)"/>
      <use xlink:href="#CMR17-74" transform="translate(372.658743 0) scale(0.996264)"/>
      <use xlink:href="#CMR17-69" transform="translate(407.939511 0) scale(0.996264)"/>
      <use xlink:href="#CMR17-6f" transform="translate(432.810569 0) scale(0.996264)"/>
      <use xlink:href="#CMR17-73" transform="translate(478.501046 0) scale(0.996264)"/>
      <use xlink:href="#CMR17-43" transform="translate(544.37835 0) scale(0.996264)"/>
      <use xlink:href="#CMR17-52" transform="translate(610.888231 0) scale(0.996264)"/>
     </g>
    </g>
    <g id="line2d_35">
     <path d="M 194.442666 200.814404 
L 210.442666 200.814404 
L 226.442666 200.814404 
" style="fill: none; stroke: #d66b6a; stroke-width: 2.5; stroke-linecap: square"/>
     <g>
      <use xlink:href="#m7407beafaf" x="210.442666" y="200.814404" style="fill: #d66b6a; stroke: #d66b6a; stroke-linejoin: miter"/>
     </g>
    </g>
    <g id="text_21">
     <!-- IQM des ratios CR -->
     <g transform="translate(239.242666 206.414404) scale(0.16 -0.16)">
      <use xlink:href="#CMR17-49" transform="scale(0.996264)"/>
      <use xlink:href="#CMR17-51" transform="translate(32.638409 0) scale(0.996264)"/>
      <use xlink:href="#CMR17-4d" transform="translate(104.353198 0) scale(0.996264)"/>
      <use xlink:href="#CMR17-64" transform="translate(219.116105 0) scale(0.996264)"/>
      <use xlink:href="#CMR17-65" transform="translate(270.011474 0) scale(0.996264)"/>
      <use xlink:href="#CMR17-73" transform="translate(310.497135 0) scale(0.996264)"/>
      <use xlink:href="#CMR17-72" transform="translate(376.374439 0) scale(0.996264)"/>
      <use xlink:href="#CMR17-61" transform="translate(411.655207 0) scale(0.996264)"/>
      <use xlink:href="#CMR17-74" transform="translate(457.345684 0) scale(0.996264)"/>
      <use xlink:href="#CMR17-69" transform="translate(492.626451 0) scale(0.996264)"/>
      <use xlink:href="#CMR17-6f" transform="translate(517.49751 0) scale(0.996264)"/>
      <use xlink:href="#CMR17-73" transform="translate(563.187987 0) scale(0.996264)"/>
      <use xlink:href="#CMR17-43" transform="translate(629.065291 0) scale(0.996264)"/>
      <use xlink:href="#CMR17-52" transform="translate(695.575172 0) scale(0.996264)"/>
     </g>
    </g>
    <g id="line2d_36">
     <path d="M 194.442666 223.11388 
L 210.442666 223.11388 
L 226.442666 223.11388 
" style="fill: none; stroke: #000000; stroke-width: 1.5; stroke-linecap: square"/>
    </g>
    <g id="text_22">
     <!-- ratio $= 1.0$ -->
     <g transform="translate(239.242666 228.71388) scale(0.16 -0.16)">
      <defs>
       <path id="CMR17-3d" d="M 4115 2048 
C 4211 2048 4307 2048 4307 2156 
C 4307 2272 4198 2272 4090 2272 
L 512 2272 
C 403 2272 294 2272 294 2156 
C 294 2048 390 2048 486 2048 
L 4115 2048 
z
M 4090 927 
C 4198 927 4307 927 4307 1043 
C 4307 1152 4211 1152 4115 1152 
L 486 1152 
C 390 1152 294 1152 294 1043 
C 294 927 403 927 512 927 
L 4090 927 
z
" transform="scale(0.015625)"/>
      </defs>
      <use xlink:href="#CMR17-72" transform="scale(0.996264)"/>
      <use xlink:href="#CMR17-61" transform="translate(35.280768 0) scale(0.996264)"/>
      <use xlink:href="#CMR17-74" transform="translate(80.971245 0) scale(0.996264)"/>
      <use xlink:href="#CMR17-69" transform="translate(116.252013 0) scale(0.996264)"/>
      <use xlink:href="#CMR17-6f" transform="translate(141.123071 0) scale(0.996264)"/>
      <use xlink:href="#CMR17-3d" transform="translate(216.889515 0) scale(0.996264)"/>
      <use xlink:href="#CMR17-31" transform="translate(316.278312 0) scale(0.996264)"/>
      <use xlink:href="#CMMI12-3a" transform="translate(361.968789 0) scale(0.996264)"/>
      <use xlink:href="#CMR17-30" transform="translate(389.065966 0) scale(0.996264)"/>
     </g>
    </g>
   </g>
  </g>
 </g>
 <defs>
  <clipPath id="p575352465b">
   <rect x="77.496848" y="7.2" width="318.503152" height="345.729332"/>
  </clipPath>
 </defs>
</svg>
